<svg width="903" height="876" viewBox="0 0 903 876" fill="none" xmlns="http://www.w3.org/2000/svg">
<path fill-rule="evenodd" clip-rule="evenodd" d="M590.85 40.1892C643.381 52.4935 658.151 118.41 702.876 147.338C755.355 181.281 840.544 167.783 871.215 221.528C902.039 275.539 880.291 348.368 849.463 404.198C820.482 456.683 766.488 491.831 709.849 513.761C660.858 532.73 607.859 527.873 557.148 517.38C513.55 508.359 483.412 475.071 442.45 458.432C377.684 432.122 281.748 452.147 248.487 391.993C216.874 334.823 268.724 263.176 302.43 205.207C332.292 153.848 375.954 112.856 428.153 82.9899C478.112 54.4062 535.668 27.264 590.85 40.1892Z" fill="#C831FD" fill-opacity="0.53"/>
<path fill-rule="evenodd" clip-rule="evenodd" d="M622.62 225.666C656.406 273.821 648.193 336.144 662.879 393.17C680.882 463.075 739.685 530.147 718.275 597.095C696.571 664.959 626.113 708.157 558.19 720.52C495.551 731.921 440.279 675.365 377.397 659.14C315.914 643.277 235.963 678.563 195.239 626.873C154.102 574.658 205.783 499.881 199.882 433.824C194.327 371.656 132.541 307.064 161.962 254.399C191.481 201.56 273.38 227.288 328.006 204.476C380.553 182.532 416.537 119.922 474.071 124.06C533.51 128.335 586.733 174.516 622.62 225.666Z" fill="#2121FE" fill-opacity="0.49"/>
<path d="M333.137 356.786C333.137 356.786 406.448 259.656 410.114 234.253C413.779 208.85 417.445 199.884 417.445 199.884C417.445 199.884 395.451 196.895 388.12 210.344C380.789 223.793 358.796 207.356 351.464 243.219C351.464 243.219 349.632 261.15 333.137 255.173C316.641 249.196 333.137 356.786 333.137 356.786Z" fill="#E1E6FB"/>
<path d="M323.973 371.729C323.973 371.729 376.39 292.531 393.619 261.151C406.448 237.84 417.445 199.884 417.445 199.884C417.445 199.884 439.622 206.459 437.606 220.805C435.773 234.253 452.268 238.736 448.602 255.174C444.57 272.956 413.046 276.243 432.107 292.531C443.654 302.394 435.04 319.13 426.609 329.889C421.294 336.763 394.718 343.039 400.95 340.349C415.246 334.372 323.973 371.729 323.973 371.729Z" fill="#BAC5F4"/>
<path d="M357.174 305.418C355.335 304.727 362.767 288.367 373.773 268.875C384.779 249.383 395.192 234.141 397.031 234.832C398.87 235.522 391.439 251.883 380.432 271.374C369.426 290.866 359.013 306.108 357.174 305.418Z" fill="#BAC5F4"/>
<path d="M308.211 420.294C308.211 420.294 419.827 351.557 434.49 328.993C449.152 306.429 456.667 299.107 456.667 299.107C456.667 299.107 437.422 289.842 424.593 300.153C411.763 310.463 398.567 288.646 375.84 319.877C375.84 319.877 373.275 341.844 356.779 337.361C339.918 332.728 308.211 420.294 308.211 420.294Z" fill="#E1E6FB"/>
<path d="M293 431.501C293 431.501 377.125 373.224 407.183 349.165C429.543 331.234 456.668 299.106 456.668 299.106C456.668 299.106 474.263 311.808 466.199 324.509C458.501 336.464 471.88 345.579 461.067 359.775C449.52 375.166 418.546 368.89 428.993 389.661C435.408 402.213 419.829 415.363 407.183 422.834C399.119 427.616 371.627 425.524 378.591 424.926C394.72 423.731 293 431.501 293 431.501Z" fill="#F8F8FF"/>
<path d="M364.635 397.652C363.23 396.464 377.447 383.425 396.391 368.53C415.334 353.634 431.83 342.522 433.236 343.71C434.641 344.898 420.423 357.937 401.48 372.832C382.536 387.728 366.04 398.84 364.635 397.652Z" fill="#E1E6FB"/>
<path d="M741.358 531.246L714.801 546.829L697.684 526.046L724.242 510.463L741.358 531.246Z" fill="#E1E6FB"/>
<path d="M719.149 506.428L692.592 522.011L675.475 501.227L702.033 485.645L719.149 506.428Z" fill="#E1E6FB"/>
<path d="M687.673 524.899L661.116 540.481L644 519.698L670.557 504.115L687.673 524.899Z" fill="#E1E6FB"/>
<path d="M642.126 370.006C642.126 370.006 613.089 235.942 621.615 205.614C630.14 175.286 630.71 163.885 630.71 163.885C630.71 163.885 655.179 167.179 656.281 184.929C657.384 202.679 688.304 190.57 678.405 233.963C678.405 233.963 671.517 255.177 691.742 253.36C711.967 251.543 642.126 370.006 642.126 370.006Z" fill="#E1E6FB"/>
<path d="M644.364 389.902C644.364 389.902 628.341 282.855 625.588 241.54C623.586 210.936 630.71 163.886 630.71 163.886C630.71 163.886 604.298 164.615 599.42 181.667C594.84 197.692 575.249 197.787 571.103 217.819C566.561 239.49 597.957 252.97 570.063 265.763C553.273 273.549 553.928 295.496 557.592 310.394C559.929 319.862 584.479 335.255 579.353 330.334C567.395 319.121 644.364 389.902 644.364 389.902Z" fill="#BAC5F4"/>
<path d="M642.631 256.533C644.601 282.297 644.333 303.294 642.059 303.505C639.786 303.716 636.321 283.09 634.351 257.326C632.381 231.562 632.649 210.565 634.99 210.215C637.33 209.865 640.661 230.769 642.631 256.533Z" fill="#BAC5F4"/>
<path d="M637.16 450.608C637.16 450.608 554.035 337.382 549.826 306.851C545.617 276.319 541.269 265.701 541.269 265.701C541.269 265.701 565.855 260.985 574.21 276.797C582.566 292.609 606.942 271.567 615.613 314.525C615.613 314.525 607.432 340.46 627.024 340.364C646.955 340.381 637.16 450.608 637.16 450.608Z" fill="#F8F8FF"/>
<path d="M647.428 468.182C647.428 468.182 588.004 375.378 568.337 338.427C553.725 311.042 541.032 265.783 541.032 265.783C541.032 265.783 516.442 275.004 518.626 292.147C520.873 308.346 502.443 314.622 506.613 334.195C511.202 355.355 546.564 357.759 525.344 378.4C512.592 390.907 522.366 410.731 531.922 423.239C537.951 431.196 567.803 437.242 560.688 434.397C545.06 427.922 647.428 468.182 647.428 468.182Z" fill="#E1E6FB"/>
<path d="M563.525 355.341C574.75 378.704 582.281 398.267 580.25 399.202C578.219 400.137 567.3 381.865 556.076 358.502C544.852 335.139 537.321 315.577 539.352 314.641C541.383 313.706 552.301 331.978 563.525 355.341Z" fill="white"/>
<path d="M290.371 543.338L313.569 562.252L291.926 579.897L268.728 560.984L290.371 543.338Z" fill="#E1E6FB"/>
<path d="M264.84 565.854L288.038 584.767L266.395 602.413L243.198 583.499L264.84 565.854Z" fill="#E1E6FB"/>
<path d="M292.336 588.27L315.534 607.183L293.891 624.829L270.693 605.915L292.336 588.27Z" fill="#E1E6FB"/>
<path d="M363.354 403.76C363.354 403.76 276.296 288.25 270.615 257.468C264.933 226.685 260.351 215.926 260.351 215.926C260.351 215.926 284.544 211.443 293.525 227.581C302.505 243.72 325.782 222.949 336.045 266.284C336.045 266.284 339.161 288.101 357.122 280.181C375.084 272.261 363.354 403.76 363.354 403.76Z" fill="#E1E6FB"/>
<path d="M374.351 421.541C374.351 421.541 311.486 327.101 290.409 289.594C274.83 261.8 260.351 215.925 260.351 215.925C260.351 215.925 236.158 224.741 239.274 242.075C242.207 258.363 224.062 264.49 229.194 284.364C234.692 305.882 269.882 308.721 249.721 329.193C237.625 341.596 248.071 361.769 258.152 374.47C264.567 382.54 294.258 389.264 287.293 386.275C271.165 379.551 374.351 421.541 374.351 421.541Z" fill="#BAC5F4"/>
<path d="M312.952 298.261C326.332 321.572 335.496 341.148 333.48 342.044C331.464 342.941 319.001 324.86 305.621 301.549C292.242 278.238 283.078 258.663 285.094 257.617C287.11 256.571 299.573 274.951 312.952 298.261Z" fill="#BAC5F4"/>
<path d="M394.878 480.118C394.878 480.118 266.949 400.621 249.354 373.574C231.759 346.527 222.962 338.01 222.962 338.01C222.962 338.01 243.673 326.055 258.518 338.159C273.364 350.263 286.56 323.216 313.868 360.424C313.868 360.424 317.901 387.023 336.045 380.896C354.556 374.77 394.878 480.118 394.878 480.118Z" fill="#F8F8FF"/>
<path d="M412.289 493.268C412.289 493.268 315.518 425.427 280.695 397.185C254.853 376.264 222.779 338.16 222.779 338.16C222.779 338.16 204.085 354.298 213.798 369.54C223.146 383.885 208.85 395.391 221.496 412.277C235.242 430.507 269.149 421.841 258.702 447.542C252.47 463.083 270.431 478.475 284.91 487.141C294.074 492.67 324.499 489.084 316.618 488.636C299.206 487.44 412.289 493.268 412.289 493.268Z" fill="#E1E6FB"/>
<path d="M283.811 414.369C304.704 432.6 320.466 448.439 319 449.934C317.534 451.428 299.206 437.83 278.312 419.599C257.418 401.369 241.656 385.529 243.123 384.035C244.589 382.54 262.917 396.139 283.811 414.369Z" fill="white"/>
<path d="M654.137 388.292C654.137 388.292 727.448 291.162 731.114 265.759C734.779 240.356 738.445 231.39 738.445 231.39C738.445 231.39 716.451 228.402 709.12 241.85C701.789 255.299 679.796 238.862 672.464 274.725C672.464 274.725 670.632 292.657 654.137 286.68C637.641 280.702 654.137 388.292 654.137 388.292Z" fill="#E1E6FB"/>
<path d="M644.973 403.236C644.973 403.236 697.391 324.038 714.619 292.657C727.448 269.346 738.445 231.391 738.445 231.391C738.445 231.391 760.622 237.966 758.606 252.311C756.773 265.76 773.268 270.243 769.602 286.68C765.57 304.462 734.046 307.75 753.107 324.038C764.654 333.9 756.04 350.636 747.609 361.395C742.294 368.269 715.718 374.545 721.95 371.855C736.246 365.878 644.973 403.236 644.973 403.236Z" fill="#BAC5F4"/>
<path d="M678.174 336.924C676.335 336.234 683.767 319.873 694.773 300.381C705.779 280.889 716.192 265.647 718.031 266.338C719.87 267.028 712.439 283.389 701.432 302.881C690.426 322.372 680.013 337.614 678.174 336.924Z" fill="#BAC5F4"/>
<path d="M629.211 451.801C629.211 451.801 740.827 383.063 755.49 360.499C770.152 337.935 777.667 330.612 777.667 330.612C777.667 330.612 758.422 321.348 745.593 331.658C732.763 341.969 719.567 320.152 696.84 351.383C696.84 351.383 694.275 373.35 677.779 368.867C660.918 364.234 629.211 451.801 629.211 451.801Z" fill="#E1E6FB"/>
<path d="M614 463.008C614 463.008 698.125 404.73 728.183 380.672C750.543 362.74 777.668 330.612 777.668 330.612C777.668 330.612 795.263 343.314 787.199 356.016C779.501 367.97 792.88 377.085 782.067 391.281C770.52 406.672 739.546 400.396 749.993 421.167C756.408 433.719 740.829 446.869 728.183 454.341C720.119 459.123 692.627 457.031 699.591 456.433C715.72 455.237 614 463.008 614 463.008Z" fill="#F8F8FF"/>
<path d="M685.635 429.158C684.23 427.97 698.447 414.932 717.391 400.036C736.334 385.141 752.83 374.028 754.236 375.216C755.641 376.405 741.423 389.443 722.48 404.339C703.536 419.234 687.04 430.346 685.635 429.158Z" fill="#E1E6FB"/>
<path d="M425.582 618.888C422.526 616.955 419.11 614.67 410.482 612.912C403.292 611.682 399.158 600.784 399.158 600.784H382.62C382.62 600.784 381.182 618.888 381.901 620.295C382.62 621.701 382.98 623.283 386.934 624.513C390.709 625.568 424.323 625.216 425.761 624.865C427.02 624.689 431.154 622.404 425.582 618.888Z" fill="#4B49BB"/>
<path d="M233.065 445.219C230.907 448.383 221.021 479.847 221.021 481.429C220.841 483.012 221.74 487.406 226.773 483.363C229.469 481.078 232.885 478.617 237.019 470.883C240.434 464.73 252.298 463.851 252.298 463.851L257.331 448.558C257.331 448.558 240.075 441.703 238.457 441.879C236.839 442.055 235.222 442.055 233.065 445.219Z" fill="#4B49BB"/>
<path d="M341.996 388.265C341.636 388.44 341.097 391.429 340.917 391.78C338.401 399.515 315.392 468.069 315.392 470.881C315.392 473.869 265.96 451.897 258.05 448.557C257.331 448.206 256.792 448.557 256.433 449.084C254.815 452.424 250.321 462.268 251.939 463.498C253.916 464.905 305.865 501.115 310.179 502.17C314.493 503.225 320.785 508.322 331.39 496.018C340.558 485.295 366.083 444.866 373.093 433.44C373.453 432.913 374.172 432.737 374.711 433.089C375.071 433.264 375.25 433.616 375.43 433.967C376.688 444.866 377.228 487.053 381.002 498.479C384.777 509.728 379.385 521.857 379.385 538.556L382.441 599.728C382.441 600.431 382.98 600.782 383.519 600.782L397.899 601.134C398.618 601.134 398.978 600.782 399.158 600.079C400.056 590.236 409.583 516.232 410.482 504.807C411.561 492.326 417.672 387.737 416.055 381.409C414.796 377.366 349.905 387.034 341.996 388.265Z" fill="url(#paint0_linear)"/>
<path d="M347.389 204.224C347.389 204.224 350.984 190.162 353.86 190.162C356.736 190.162 374.172 192.271 376.329 202.291C378.486 212.31 386.395 217.935 386.395 229.888C386.395 242.017 391.428 247.466 391.428 247.466C391.428 247.466 397.181 229.712 401.495 221.978C405.809 214.244 413.358 209.498 413.358 204.224C413.358 198.951 407.067 140.065 406.528 138.483C405.988 136.901 404.371 127.584 408.146 122.311C408.146 122.311 419.65 112.995 421.088 109.303C422.166 106.139 425.941 104.382 428.098 108.073C430.255 111.764 421.447 121.608 420.009 125.475C418.751 129.166 417.852 133.034 417.313 137.077C417.313 138.131 415.156 153.776 415.156 161.51C415.156 169.244 420.009 193.853 420.009 201.763C420.009 209.498 402.393 240.787 400.776 246.587C399.158 252.388 347.928 307.056 346.849 308.638C345.771 310.22 340.558 322.173 340.558 326.391C340.558 330.61 340.558 344.145 342.715 341.508C344.872 338.872 353.68 318.13 355.298 315.493C356.915 312.856 369.498 310.395 375.43 308.813C381.362 307.231 390.17 310.395 389.092 314.087C388.013 317.778 370.757 324.633 365.184 325.864C361.769 326.743 346.49 343.09 345.411 347.836C344.333 352.582 330.492 345.727 330.492 339.047C330.492 332.368 332.109 297.915 334.266 293.169C336.423 288.423 346.13 268.208 351.343 257.661C356.736 247.115 345.052 242.017 342.895 234.634C340.198 227.427 347.389 204.224 347.389 204.224Z" fill="url(#paint1_linear)"/>
<path d="M393.226 237.623C393.226 237.623 407.067 213.19 408.505 207.037C409.943 200.885 406.348 138.308 406.348 138.308L417.133 136.726C417.133 136.726 427.379 194.733 428.817 201.588C430.255 208.268 425.222 222.858 420.369 231.119C415.515 239.381 402.393 273.658 402.393 277.701C402.393 281.744 403.292 320.239 405.449 327.798C407.606 335.357 416.234 381.762 416.234 381.762L341.996 388.618C341.996 388.618 345.231 368.403 345.052 361.548C344.512 346.782 340.378 335.708 351.343 328.677C358.713 324.107 365.723 326.216 373.812 322.525C382.98 318.13 385.137 314.439 385.676 311.978C386.036 310.572 383.699 307.232 369.318 312.329C364.465 314.087 354.938 313.911 354.579 320.064C354.399 325.161 361.229 336.235 353.141 341.157C353.141 341.157 343.973 362.427 335.345 365.766C327.975 368.579 319.167 360.845 319.347 350.825C319.526 338.696 320.245 315.669 325.998 305.65C331.57 295.63 347.029 269.791 349.725 267.681C352.422 265.572 360.87 275.416 370.577 274.185C380.283 272.779 384.418 268.384 386.575 263.638C388.552 258.717 393.226 237.623 393.226 237.623Z" fill="url(#paint2_linear)"/>
<path d="M362.128 193.15C366.442 200.005 372.195 205.982 378.666 210.728C389.99 219.165 378.846 242.896 378.306 254.673C377.947 264.165 383.699 277.173 397.54 285.962C407.606 292.466 400.596 306.88 400.596 314.262C400.596 321.469 416.774 304.067 417.313 295.63C418.032 285.434 415.336 278.052 407.966 269.79C401.135 262.056 393.046 232.876 390.709 218.989C390.53 217.583 390.35 216.177 390.53 214.771C390.709 209.849 390.17 194.38 375.79 185.767C358.713 175.396 348.107 184.888 341.277 190.689C332.828 197.72 329.413 217.056 331.57 247.114C333.727 277.173 328.334 294.399 324.739 303.012C316.471 322.876 338.94 308.989 343.074 297.563C348.467 282.973 352.062 281.743 359.612 270.317C362.668 265.923 358.713 250.63 355.298 244.302C349.006 231.997 345.411 226.9 345.411 218.638C345.411 210.376 355.837 196.314 362.128 193.15Z" fill="url(#paint3_linear)"/>
<path opacity="0.07" d="M365.544 246.939C365.544 246.939 377.587 247.642 380.823 240.259C381.182 239.38 378.845 263.111 378.306 259.947C377.407 256.783 365.544 246.939 365.544 246.939Z" fill="black"/>
<path opacity="0.07" d="M344.333 301.782C344.333 301.782 341.636 318.657 340.018 326.216C339.12 330.434 338.58 334.477 338.58 338.696C338.58 338.696 348.826 326.215 352.062 321.294C354.039 318.13 347.928 319.712 347.388 308.286C346.849 296.86 347.029 289.653 347.029 289.653L344.333 301.782Z" fill="black"/>
<path opacity="0.07" d="M345.231 355.746C345.231 355.746 354.399 346.957 354.758 342.387C355.298 336.41 359.612 336.762 359.612 340.453C359.612 344.145 352.781 372.094 356.915 379.476C361.05 386.859 364.285 386.683 364.285 386.683L341.996 388.265L345.231 355.746Z" fill="black"/>
<path opacity="0.07" d="M364.285 386.684C364.285 386.684 365.544 408.832 357.455 416.214C340.917 431.331 350.624 451.018 343.254 459.632C337.142 466.838 335.525 487.404 320.785 491.975C315.033 493.908 294.001 481.252 289.687 479.846C280.7 476.858 274.228 459.983 246.187 451.194C239.536 449.085 263.443 451.37 263.443 451.37L315.392 472.463L342.176 388.441L364.285 386.684Z" fill="black"/>
<path d="M599.324 308.212L637.611 312.958C638.33 313.134 638.869 313.837 638.869 314.716L637.791 348.466C637.791 349.52 637.072 350.927 635.993 350.575L597.886 343.368C597.167 343.192 596.627 342.489 596.627 341.786L596.448 338.095L600.582 337.04C601.661 336.688 602.739 336.161 603.458 335.634C603.638 335.458 603.818 335.282 603.997 335.106L604.896 333.876C605.256 333.524 605.256 332.997 605.256 332.47C605.076 331.766 604.896 330.712 604.716 330.009C604.716 329.833 604.537 329.657 604.537 329.481L603.638 327.548C603.278 326.669 602.559 325.966 601.481 325.438L600.942 325.087L596.807 322.977L597.167 309.794C597.167 308.915 597.886 308.212 598.964 308.212C599.324 308.212 599.324 308.212 599.324 308.212Z" fill="white"/>
<path d="M574.158 360.419V379.052L597.166 584.187H613.524C613.524 584.187 619.097 443.563 619.097 438.641C619.097 433.72 620.535 418.427 620.535 418.427C620.535 418.427 641.027 476.258 641.386 481.004C641.746 485.75 637.971 585.417 637.971 585.417L654.328 586.121C654.328 586.121 668.529 518.797 668.529 512.469C668.529 506.141 673.382 472.918 672.663 466.59C671.944 460.262 659.901 361.123 659.901 361.123L634.915 360.419H574.158Z" fill="url(#paint4_linear)"/>
<path d="M679.674 338.799L679.494 338.447C679.494 338.799 679.494 338.974 679.674 338.799ZM631.859 320.869L622.692 324.56L622.152 336.865L632.219 340.732C632.219 340.732 643.184 340.381 643.184 340.205C643.184 339.678 647.498 339.853 649.475 341.084L683.629 329.658L684.887 321.748C684.887 321.748 687.403 331.767 676.079 311.553L631.859 320.869ZM672.484 280.264L671.765 276.221L669.967 275.869L672.484 280.264ZM609.57 173.038C605.435 174.796 603.278 180.772 603.278 180.772C603.278 180.772 601.301 179.542 601.301 182.882C601.301 186.222 603.098 193.956 604.177 195.889C606.334 199.229 608.311 202.569 610.109 206.085C611.727 209.6 611.187 216.807 609.39 217.862C607.592 218.917 576.675 246.163 576.675 246.163L551.149 322.978V325.967L555.104 327.373L559.238 330.713C559.598 330.713 564.811 333.525 565.53 334.053C569.664 335.986 573.978 337.568 578.292 338.447C581.168 338.974 593.931 338.799 593.931 338.799L606.873 338.447L604.716 322.275L585.483 322.1L559.238 320.869L585.842 261.104L669.608 275.694C654.688 249.327 637.971 219.796 636.533 216.631C635.275 214.171 636.533 208.018 637.252 204.854C637.971 202.042 639.409 198.35 640.667 197.296C642.105 196.241 644.442 191.495 644.442 189.561C644.442 187.628 644.981 179.542 643.363 181.3C642.824 181.827 640.847 178.839 640.128 175.675C639.049 171.28 635.814 168.116 632.219 165.304C632.219 165.304 613.704 171.28 609.57 172.862" fill="url(#paint5_linear)"/>
<path d="M577.393 229.815C573.259 232.452 569.664 236.143 568.226 240.713C566.788 245.459 557.081 281.67 555.823 286.416C552.587 297.666 550.79 300.83 547.015 314.189C542.341 330.536 552.947 332.997 563.912 335.283C575.236 337.743 575.236 338.798 577.933 338.798C578.292 338.798 591.774 341.435 592.133 334.052C592.493 329.306 591.594 321.923 589.797 322.099C585.662 322.626 572.36 319.287 571.641 318.759C570.743 318.232 574.517 308.037 576.674 301.709C578.292 296.963 584.404 277.627 585.842 274.111C586.561 272.178 582.427 292.92 579.91 313.31C579.91 314.013 578.831 321.923 579.191 321.923C582.247 321.923 590.516 322.099 593.212 322.275C604.896 323.681 607.233 329.13 606.514 333.525C605.255 341.083 576.674 337.568 576.854 338.622C576.854 338.622 572.001 360.243 574.697 361.649C577.034 362.88 609.03 375.888 615.861 378.348C616.58 378.7 617.479 378.348 617.658 377.47L621.973 365.341C621.973 365.165 622.152 365.165 622.332 365.165C622.332 365.165 622.512 365.165 622.512 365.341L626.646 378.7C626.646 379.052 627.006 379.403 627.365 379.403H629.163L664.754 371.845C664.754 371.845 664.574 358.134 664.574 340.556C664.574 338.798 664.215 332.294 662.957 333.525C661.698 334.755 632.039 338.622 628.803 337.216C621.973 334.404 623.77 327.372 626.107 324.56C628.803 321.22 663.855 319.638 664.035 317.177C664.574 306.455 663.676 278.154 663.136 281.67C662.238 286.943 641.746 315.947 641.746 321.044C641.746 326.142 641.386 338.798 641.386 338.798L675 336.337C675 336.337 686.325 332.47 687.223 326.142C688.302 319.814 687.044 317.001 686.504 307.509C686.145 301.533 677.517 265.322 675 255.127C674.641 253.545 674.461 251.963 674.281 250.381C673.922 246.162 672.304 236.319 662.957 231.924C651.452 226.475 642.285 222.256 639.948 222.256C637.791 222.256 631.859 234.912 628.803 238.604C627.365 240.186 627.725 241.065 625.927 243.35C625.028 244.58 623.231 244.756 621.973 244.053C621.613 243.877 621.433 243.526 621.254 243.35C620.175 241.944 619.456 240.362 618.557 238.78C617.119 236.143 606.514 220.674 606.514 220.674C606.514 220.674 581.528 227.002 577.393 229.815Z" fill="url(#paint6_linear)"/>
<path d="M632.219 165.479C632.219 165.479 609.57 173.74 607.952 174.971C606.334 176.201 603.278 180.772 603.278 180.772C603.278 180.772 601.66 179.893 601.301 182.178C601.301 182.178 598.964 177.432 598.784 174.971C598.425 172.334 598.784 165.655 603.098 161.26C607.413 156.866 616.221 150.889 621.613 151.768C627.006 152.471 629.343 153.174 632.758 156.514C636.173 159.854 639.049 160.909 640.128 161.26C641.206 161.787 644.981 164.6 645.7 169.698C646.419 174.795 644.622 185.166 644.622 185.166C644.622 185.166 645.161 181.123 643.543 182.354C642.465 183.233 640.667 179.541 640.128 177.256C639.229 175.147 633.477 166.182 632.219 165.479Z" fill="url(#paint7_linear)"/>
<path d="M612.985 584.011H610.468L596.987 584.186C596.987 584.186 594.111 597.722 592.493 603.347C592.493 603.698 592.133 604.577 591.954 605.28C591.774 606.335 591.594 607.214 591.594 608.268C591.954 613.366 593.751 617.76 598.605 620.046C603.817 622.506 607.772 624.967 613.165 620.046C618.557 615.124 619.456 612.135 617.299 603.522C614.962 595.085 614.243 584.187 612.985 584.011Z" fill="#4B44BE"/>
<path d="M669.608 600.885C660.26 598.073 653.969 585.592 653.969 585.592L637.971 584.713C637.971 584.713 637.072 597.369 636.713 603.698C636.173 612.135 637.611 616.002 643.363 615.475C650.913 614.947 681.471 617.584 686.325 614.596C692.616 610.553 678.236 603.522 669.608 600.885Z" fill="#4B44BE"/>
<defs>
<linearGradient id="paint0_linear" x1="251.662" y1="490.742" x2="416.144" y2="490.742" gradientUnits="userSpaceOnUse">
<stop stop-color="#E5A4ED"/>
<stop offset="1" stop-color="#7A5BF5"/>
</linearGradient>
<linearGradient id="paint1_linear" x1="329.927" y1="227.771" x2="428.025" y2="227.771" gradientUnits="userSpaceOnUse">
<stop offset="0.11" stop-color="#F87B58"/>
<stop offset="0.5" stop-color="#F8C548"/>
<stop offset="1" stop-color="#F89C51"/>
</linearGradient>
<linearGradient id="paint2_linear" x1="330.071" y1="315.195" x2="481.249" y2="207.595" gradientUnits="userSpaceOnUse">
<stop stop-color="#4B45BD"/>
<stop offset="1" stop-color="#58CAEA"/>
</linearGradient>
<linearGradient id="paint3_linear" x1="323.122" y1="248.78" x2="417.429" y2="248.78" gradientUnits="userSpaceOnUse">
<stop stop-color="#E5A4ED"/>
<stop offset="1" stop-color="#7A5BF5"/>
</linearGradient>
<linearGradient id="paint4_linear" x1="574.073" y1="473.15" x2="672.666" y2="473.15" gradientUnits="userSpaceOnUse">
<stop stop-color="#E5A4ED"/>
<stop offset="1" stop-color="#7A5BF5"/>
</linearGradient>
<linearGradient id="paint5_linear" x1="551.215" y1="253.271" x2="685.055" y2="253.271" gradientUnits="userSpaceOnUse">
<stop stop-color="#F87B58"/>
<stop offset="0.41" stop-color="#F89453"/>
<stop offset="0.71" stop-color="#F8C548"/>
<stop offset="1" stop-color="#F89C51"/>
</linearGradient>
<linearGradient id="paint6_linear" x1="545.907" y1="299.991" x2="687.376" y2="299.991" gradientUnits="userSpaceOnUse">
<stop stop-color="#4B45BD"/>
<stop offset="1" stop-color="#58CAEA"/>
</linearGradient>
<linearGradient id="paint7_linear" x1="598.658" y1="168.318" x2="645.753" y2="168.318" gradientUnits="userSpaceOnUse">
<stop stop-color="#E5A4ED"/>
<stop offset="1" stop-color="#7A5BF5"/>
</linearGradient>
</defs>
</svg>
