<svg width="1131" height="134" viewBox="0 0 1131 134" fill="none" xmlns="http://www.w3.org/2000/svg">
<path d="M34.6107 66.002H418.415" stroke="white" stroke-width="3"/>
<path d="M449.466 66.002H682.599" stroke="white" stroke-width="3"/>
<path d="M713.65 66.002H1098.98" stroke="white" stroke-width="3"/>
<line x1="20.349" y1="0.00195313" x2="20.349" y2="54.002" stroke="white" stroke-dasharray="10 10"/>
<line x1="434.695" y1="79.002" x2="434.695" y2="133.002" stroke="white" stroke-dasharray="10 10"/>
<line x1="1111.7" y1="78.002" x2="1111.7" y2="132.002" stroke="white" stroke-dasharray="10 10"/>
<line x1="697.352" y1="0.00195313" x2="697.352" y2="54.002" stroke="white" stroke-dasharray="10 10"/>
<path d="M39.1919 66.002C39.1919 76.4954 30.5318 85.002 19.849 85.002C9.16614 85.002 0.506012 76.4954 0.506012 66.002C0.506012 55.5085 9.16614 47.002 19.849 47.002C30.5318 47.002 39.1919 55.5085 39.1919 66.002ZM8.24319 66.002C8.24319 72.298 13.4393 77.402 19.849 77.402C26.2586 77.402 31.4547 72.298 31.4547 66.002C31.4547 59.7059 26.2586 54.602 19.849 54.602C13.4393 54.602 8.24319 59.7059 8.24319 66.002Z" fill="#C831FD"/>
<path d="M1130.54 66.002C1130.54 76.4954 1121.88 85.002 1111.2 85.002C1100.52 85.002 1091.86 76.4954 1091.86 66.002C1091.86 55.5085 1100.52 47.002 1111.2 47.002C1121.88 47.002 1130.54 55.5085 1130.54 66.002ZM1099.59 66.002C1099.59 72.298 1104.79 77.402 1111.2 77.402C1117.61 77.402 1122.8 72.298 1122.8 66.002C1122.8 59.7059 1117.61 54.602 1111.2 54.602C1104.79 54.602 1099.59 59.7059 1099.59 66.002Z" fill="#C831FD"/>
<path d="M453.538 66.002C453.538 76.4954 444.878 85.002 434.195 85.002C423.512 85.002 414.852 76.4954 414.852 66.002C414.852 55.5085 423.512 47.002 434.195 47.002C444.878 47.002 453.538 55.5085 453.538 66.002ZM422.589 66.002C422.589 72.298 427.786 77.402 434.195 77.402C440.605 77.402 445.801 72.298 445.801 66.002C445.801 59.7059 440.605 54.602 434.195 54.602C427.786 54.602 422.589 59.7059 422.589 66.002Z" fill="#C831FD"/>
<path d="M716.195 66.002C716.195 76.4954 707.535 85.002 696.852 85.002C686.169 85.002 677.509 76.4954 677.509 66.002C677.509 55.5085 686.169 47.002 696.852 47.002C707.535 47.002 716.195 55.5085 716.195 66.002ZM685.246 66.002C685.246 72.298 690.442 77.402 696.852 77.402C703.262 77.402 708.458 72.298 708.458 66.002C708.458 59.7059 703.262 54.602 696.852 54.602C690.442 54.602 685.246 59.7059 685.246 66.002Z" fill="#C831FD"/>
</svg>
