<svg width="677" height="326" viewBox="0 0 677 326" fill="none" xmlns="http://www.w3.org/2000/svg">
<path fill-rule="evenodd" clip-rule="evenodd" d="M69.8791 -388.046C139.575 -419.973 212.81 -357.158 287.996 -363.13C376.218 -370.139 460.515 -460.366 541.195 -425.487C622.276 -390.435 660.344 -287.647 673.59 -196.435C686.043 -110.69 655.453 -22.9329 610.533 51.9475C571.679 116.719 507.851 157.616 441.759 190.029C384.937 217.896 322.426 206.064 262.029 222.861C166.533 249.42 75.7444 356.575 -13.3559 316.601C-98.0379 278.61 -101.205 150.78 -113.05 54.5863C-123.545 -30.6386 -109.603 -116.051 -76.4958 -196.161C-44.8095 -272.832 -3.3346 -354.508 69.8791 -388.046Z" fill="#C831FD" fill-opacity="0.53"/>
</svg>
