<svg width="435" height="321" viewBox="0 0 435 321" fill="none" xmlns="http://www.w3.org/2000/svg">
<path fill-rule="evenodd" clip-rule="evenodd" d="M309.724 161.192C355.767 234.565 340.076 326.302 357.897 411.619C379.743 516.206 460.897 619.131 425.797 716.895C390.216 815.996 285.468 875.562 186.268 889.646C94.7861 902.635 18.1106 815.494 -72.0451 787.578C-160.196 760.282 -278.221 807.549 -334.105 728.514C-390.558 648.676 -311.106 541.202 -315.646 443.063C-319.919 350.7 -405.547 251.262 -359.704 175.136C-313.709 98.7579 -196.567 141.922 -116.006 111.546C-38.5098 82.3263 17.451 -8.11219 100.589 1.58282C186.481 11.5991 260.817 83.2558 309.724 161.192Z" fill="#2121FE" fill-opacity="0.49"/>
</svg>
