<svg width="710" height="110" viewBox="0 0 710 110" fill="none" xmlns="http://www.w3.org/2000/svg">
<path fill-rule="evenodd" clip-rule="evenodd" d="M223.284 5.67839C295.615 -19.4059 362.733 50.1721 438.136 51.4547C526.612 52.9596 618.853 -28.7623 695.959 13.7184C773.448 56.4101 801.87 162.402 806.648 254.482C811.141 341.044 772.595 425.47 720.972 495.699C676.318 556.447 609.004 591.026 540.217 616.94C481.078 639.22 419.936 621.431 358.259 632.347C260.738 649.606 160.474 747.556 75.4545 699.194C-5.34871 653.229 3.28294 525.663 0.359058 428.757C-2.2314 342.902 19.5228 259.209 59.8688 182.639C98.4829 109.355 147.304 32.0286 223.284 5.67839Z" fill="#C831FD" fill-opacity="0.53"/>
</svg>
