<svg width="449" height="475" viewBox="0 0 449 475" fill="none" xmlns="http://www.w3.org/2000/svg">
<path fill-rule="evenodd" clip-rule="evenodd" d="M484.441 -390.592C567.048 -368.725 616.591 -290.54 686.443 -240.324C772.073 -178.765 900.103 -159.589 939.418 -63.5124C979.271 33.8785 942.075 150.273 878.68 229.453C820.217 302.472 705.977 291.766 621.264 333.859C538.435 375.016 483.314 491.603 389.72 472.412C295.176 453.026 281.932 319.047 213.288 250.207C148.685 185.419 19.6931 171.904 2.6586 84.2456C-14.4326 -3.70486 100.224 -53.3433 139.105 -131.538C176.506 -206.757 157.368 -311.938 224.806 -362.527C294.479 -414.792 396.697 -413.819 484.441 -390.592Z" fill="#2121FE" fill-opacity="0.49"/>
</svg>
