<svg width="1600" height="1778" viewBox="0 0 1600 1778" fill="none" xmlns="http://www.w3.org/2000/svg">
<path fill-rule="evenodd" clip-rule="evenodd" d="M669.654 867.876C707.739 848.276 750.593 880.518 792.515 874.984C841.706 868.491 886.251 816.487 932.451 833.187C978.881 849.97 1003.22 905.184 1013.32 954.797C1022.82 1001.44 1008.27 1050.47 985.321 1092.88C965.471 1129.56 930.936 1153.9 894.883 1173.66C863.888 1190.64 828.539 1186.04 795.216 1197.06C742.527 1214.49 694.845 1275.97 643.78 1256.73C595.248 1238.44 589.713 1168.45 580.251 1116.06C571.868 1069.65 577.161 1022.4 593.342 977.483C608.828 934.493 629.647 888.464 669.654 867.876Z" fill="#C831FD" fill-opacity="0.53"/>
<path fill-rule="evenodd" clip-rule="evenodd" d="M657.869 1014.88C700.781 996.458 747.874 1012.97 794.574 1010.83C851.821 1008.21 913.5 973.415 962.042 1000.94C1011.25 1028.83 1033.36 1090.61 1031.93 1145.4C1030.6 1195.92 977.67 1229.68 954.84 1275.9C932.518 1321.1 946.94 1388.96 900.153 1412.21C852.892 1435.68 803.187 1383.37 750.898 1377.22C701.686 1371.43 641.45 1408.94 605.309 1377.51C569.048 1345.99 602.355 1286.53 593.508 1240.37C584.999 1195.97 542.197 1157.83 554.765 1113.8C567.75 1068.3 612.288 1034.45 657.869 1014.88Z" fill="#2121FE" fill-opacity="0.49"/>
<path fill-rule="evenodd" clip-rule="evenodd" d="M128.929 1368.96C63.3072 1429.79 -32.3113 1430.24 -115.232 1464.11C-216.883 1505.63 -305.864 1608.06 -411.17 1589.57C-517.916 1570.83 -597.522 1473.54 -630.135 1373.71C-660.211 1281.66 -586.351 1186.71 -574.842 1088.6C-563.589 992.675 -633.226 879.443 -563.705 807.428C-493.479 734.682 -370.143 797.18 -271.803 774.689C-179.251 753.522 -94.6211 647.108 -9.19386 680.609C76.5178 714.221 54.5996 842.948 100.224 920.58C144.112 995.258 245.879 1036.6 251.485 1124.16C257.276 1214.63 198.631 1304.35 128.929 1368.96Z" fill="#2121FE" fill-opacity="0.49"/>
<path fill-rule="evenodd" clip-rule="evenodd" d="M1391.97 269.808C1465.05 237.026 1541.84 301.524 1620.68 295.391C1713.18 288.195 1801.57 195.552 1886.17 231.365C1971.19 267.355 2011.1 372.895 2024.99 466.55C2038.05 554.592 2005.97 644.698 1958.87 721.584C1918.13 788.089 1851.21 830.082 1781.91 863.362C1722.33 891.975 1656.78 879.827 1593.45 897.074C1493.32 924.344 1398.12 1034.37 1304.7 993.324C1215.91 954.315 1212.58 823.063 1200.16 724.293C1189.16 636.786 1203.78 549.086 1238.49 466.832C1271.72 388.108 1315.21 304.244 1391.97 269.808Z" fill="#C831FD" fill-opacity="0.53"/>
</svg>
