<svg width="31" height="30" viewBox="0 0 31 30" fill="none" xmlns="http://www.w3.org/2000/svg">
<path fill-rule="evenodd" clip-rule="evenodd" d="M15.9478 1.79321C23.7192 1.79321 30.0193 7.81504 30.0193 15.2431C30.0193 22.6715 23.7192 28.6933 15.9478 28.6933C8.17626 28.6933 1.87614 22.6715 1.87614 15.2431C1.87614 7.81504 8.17626 1.79321 15.9478 1.79321Z" fill="white"/>
<g clip-path="url(#clip0)">
<path d="M23.797 18.8575C23.7764 18.8166 23.7574 18.7824 23.7397 18.7552C23.4465 18.2642 22.8868 17.6613 22.0605 16.9468L22.0428 16.9305L22.034 16.9221L22.0253 16.9143H22.0165C21.6414 16.5814 21.404 16.3578 21.3045 16.243C21.1229 16.0251 21.0818 15.8042 21.1814 15.5806C21.2521 15.4115 21.5157 15.0542 21.9729 14.5085C22.2131 14.2196 22.4035 13.9879 22.5443 13.8128C23.5583 12.5583 23.9976 11.7567 23.863 11.4073L23.8101 11.3255C23.7749 11.2762 23.6839 11.2313 23.5374 11.1904C23.391 11.1495 23.2034 11.143 22.975 11.17L20.443 11.1868C20.3844 11.1813 20.3258 11.1827 20.267 11.1906C20.2084 11.199 20.1703 11.2071 20.1526 11.2152C20.1349 11.2236 20.1205 11.2303 20.1087 11.2356L20.0735 11.2602C20.0442 11.2765 20.0121 11.3052 19.9769 11.3463C19.9417 11.3872 19.9121 11.4348 19.889 11.4895C19.6135 12.1496 19.3 12.7632 18.9483 13.3307C18.7314 13.6688 18.532 13.9623 18.3506 14.2103C18.1689 14.4587 18.0166 14.6414 17.8935 14.7584C17.7704 14.8756 17.6589 14.97 17.5595 15.0406C17.4598 15.1118 17.3834 15.1415 17.331 15.1307C17.2781 15.12 17.2282 15.109 17.1815 15.0977C17.0995 15.0487 17.0332 14.982 16.9836 14.8973C16.9338 14.8129 16.9001 14.7065 16.8824 14.5783C16.8649 14.4501 16.8544 14.3396 16.8518 14.2469C16.8487 14.1541 16.8503 14.0233 16.8562 13.8542C16.8621 13.6851 16.8649 13.5708 16.8649 13.5105C16.8649 13.3034 16.8693 13.0784 16.8783 12.8354C16.887 12.5927 16.8945 12.4004 16.9001 12.2586C16.906 12.117 16.9088 11.9669 16.9088 11.8086C16.9088 11.6507 16.8986 11.5264 16.878 11.4362C16.8575 11.3463 16.8266 11.2592 16.7858 11.1743C16.7447 11.0899 16.6845 11.0244 16.6054 10.9782C16.5262 10.9319 16.4281 10.895 16.3109 10.8678C16 10.8022 15.6046 10.7671 15.1241 10.7613C14.0338 10.7508 13.3334 10.8163 13.0227 10.9579C12.8996 11.0182 12.7881 11.0997 12.6887 11.2035C12.5831 11.3236 12.5684 11.3893 12.6447 11.3996C12.9965 11.4489 13.2455 11.5663 13.3919 11.7516L13.4449 11.8497C13.4857 11.921 13.5268 12.0463 13.568 12.2261C13.6091 12.4062 13.6353 12.6051 13.6471 12.8235C13.6764 13.2216 13.6764 13.5624 13.6471 13.8463C13.6178 14.1302 13.5901 14.3509 13.5636 14.5087C13.5371 14.667 13.4976 14.795 13.4449 14.8933C13.3919 14.9918 13.357 15.0518 13.3393 15.0736C13.3215 15.0953 13.3071 15.109 13.2953 15.1145C13.219 15.1415 13.1401 15.1554 13.0579 15.1554C12.9757 15.1554 12.8762 15.1171 12.7588 15.0406C12.6416 14.9645 12.5198 14.8593 12.3939 14.7256C12.2678 14.5922 12.1259 14.4052 11.9674 14.1651C11.8091 13.9252 11.6449 13.6416 11.4751 13.3142L11.3345 13.0767C11.2466 12.9242 11.1264 12.7018 10.974 12.41C10.8217 12.1182 10.6868 11.8361 10.5696 11.563C10.5226 11.4486 10.4524 11.3614 10.3586 11.3011L10.3147 11.2765C10.2854 11.2547 10.2384 11.2315 10.1739 11.2071C10.1091 11.1825 10.0421 11.1648 9.97165 11.1538L7.56273 11.17C7.31657 11.17 7.14955 11.2222 7.06167 11.3257L7.02647 11.3747C7.00874 11.4022 7 11.446 7 11.5058C7 11.5661 7.01773 11.6395 7.05293 11.7265C7.4047 12.4958 7.78704 13.2377 8.20022 13.952C8.61366 14.6668 8.97237 15.2424 9.27737 15.6786C9.58211 16.1153 9.89277 16.5268 10.2093 16.9143C10.5259 17.3017 10.7353 17.5497 10.8378 17.6587C10.9404 17.768 11.0208 17.8498 11.0796 17.9043L11.2993 18.1009C11.4399 18.2317 11.6467 18.3886 11.9191 18.5713C12.1917 18.7542 12.4934 18.9341 12.8246 19.111C13.1555 19.2885 13.5412 19.4327 13.9806 19.5448C14.4203 19.6567 14.8481 19.7017 15.2641 19.6797H16.2752C16.4805 19.6634 16.6357 19.6037 16.7411 19.4996L16.7763 19.4587C16.7996 19.4262 16.8217 19.3755 16.8423 19.3076C16.8626 19.2394 16.8731 19.1644 16.8731 19.0826C16.867 18.848 16.8862 18.6363 16.9302 18.4484C16.9741 18.2602 17.024 18.1183 17.0797 18.0227C17.1355 17.9275 17.1982 17.8469 17.2688 17.7814C17.3392 17.7159 17.3888 17.6766 17.4184 17.6628C17.4477 17.6494 17.4713 17.6398 17.4888 17.6341C17.6293 17.5906 17.7948 17.6329 17.9855 17.7608C18.1759 17.8892 18.3547 18.0471 18.5217 18.2355C18.6888 18.4237 18.8894 18.6349 19.124 18.8697C19.3584 19.1043 19.5634 19.2787 19.7394 19.3932L19.9154 19.4917C20.0326 19.557 20.185 19.617 20.3726 19.6718C20.5601 19.7261 20.7243 19.74 20.8649 19.7127L23.1155 19.6797C23.3383 19.6797 23.5112 19.6457 23.6343 19.5774C23.7574 19.5097 23.8306 19.4341 23.854 19.3523C23.8774 19.2705 23.8789 19.1782 23.8584 19.0742C23.8378 18.9706 23.8173 18.8984 23.797 18.8575Z" fill="black"/>
</g>
<defs>
<clipPath id="clip0">
<rect width="16.8859" height="8.96667" fill="white" transform="translate(7 10.7598)"/>
</clipPath>
</defs>
</svg>
