<svg width="31" height="30" viewBox="0 0 31 30" fill="none" xmlns="http://www.w3.org/2000/svg">
<path fill-rule="evenodd" clip-rule="evenodd" d="M15.9478 1.79321C23.7193 1.79321 30.0193 7.81504 30.0193 15.2431C30.0193 22.6715 23.7193 28.6933 15.9478 28.6933C8.17623 28.6933 1.87614 22.6715 1.87614 15.2431C1.87614 7.81504 8.17623 1.79321 15.9478 1.79321Z" fill="white"/>
<g clip-path="url(#clip0)">
<path d="M22.5329 8.98947L8.21882 14.3094C7.93046 14.4186 7.92646 14.8552 8.20779 14.9804L11.8744 16.4466L13.2399 20.6454C13.3211 20.8715 13.6102 20.9476 13.7969 20.7916L15.8941 18.8889L19.8813 21.467C20.0881 21.5932 20.3608 21.4792 20.4092 21.2461L23.0016 9.37501C23.0571 9.11081 22.7905 8.89194 22.5329 8.98947ZM13.9134 17.2417L13.6804 19.4001L12.5735 16.0775L20.3803 11.0793L13.9134 17.2417Z" fill="black"/>
</g>
<defs>
<clipPath id="clip0">
<rect width="15.0097" height="12.5533" fill="white" transform="translate(8 8.96631)"/>
</clipPath>
</defs>
</svg>
