<svg width="1600" height="899" viewBox="0 0 1600 899" fill="none" xmlns="http://www.w3.org/2000/svg">
<path fill-rule="evenodd" clip-rule="evenodd" d="M0 72.4268C486.303 -108.401 1340.84 111.6 1601 69.2613C1601 312.608 1601 522.744 1601 747.31C1098.09 949.563 502.908 949.563 5.34391e-05 747.31C5.34391e-05 522.744 7.63416e-06 258.003 0 72.4268Z" fill="#CCCCCC"/>
<path fill-rule="evenodd" clip-rule="evenodd" d="M0 72.4268C486.303 -108.401 1340.84 111.6 1601 69.2613C1601 312.608 1601 522.744 1601 747.31C1098.09 949.563 502.908 949.563 5.34391e-05 747.31C5.34391e-05 522.744 7.63416e-06 258.003 0 72.4268Z" fill="url(#paint0_linear)"/>
<defs>
<linearGradient id="paint0_linear" x1="-1.00051" y1="72.0317" x2="-1.00051" y2="950.451" gradientUnits="userSpaceOnUse">
<stop stop-color="#5252FF"/>
<stop offset="1" stop-color="#6A6EED"/>
</linearGradient>
</defs>
</svg>
