<svg width="895" height="660" viewBox="0 0 895 660" fill="none" xmlns="http://www.w3.org/2000/svg">
<g clip-path="url(#clip0)">
<path d="M843.586 152.662L866.784 175.474L845.141 196.756L821.943 173.944L843.586 152.662Z" fill="#E1E6FB"/>
<path d="M818.068 179.822L841.266 202.634L819.623 223.916L796.425 201.105L818.068 179.822Z" fill="#E1E6FB"/>
<path d="M812.564 125.748L835.762 148.56L814.12 169.843L790.922 147.031L812.564 125.748Z" fill="#E1E6FB"/>
<path d="M79.3257 514.929L102.523 537.741L80.8809 559.024L57.683 536.212L79.3257 514.929Z" fill="#E1E6FB"/>
<path d="M53.7949 542.085L76.9926 564.897L55.35 586.179L32.1523 563.368L53.7949 542.085Z" fill="#E1E6FB"/>
<path d="M81.291 569.121L104.489 591.933L82.8462 613.216L59.6484 590.404L81.291 569.121Z" fill="#E1E6FB"/>
<path d="M441.889 49.0229H665.49V162.567H441.889V49.0229Z" fill="#E1E6FB"/>
<path d="M714.975 474.365H799.283V658.199H714.975V474.365Z" fill="#E1E6FB"/>
<path d="M758.962 490.585C758.962 490.585 832.273 373.435 835.939 342.796C839.605 312.157 843.27 301.344 843.27 301.344C843.27 301.344 821.277 297.739 813.946 313.96C806.614 330.18 784.621 310.355 777.29 353.61C777.29 353.61 775.457 375.238 758.962 368.029C742.467 360.819 758.962 490.585 758.962 490.585Z" fill="#E1E6FB"/>
<path d="M749.798 508.608C749.798 508.608 802.216 413.086 819.444 375.238C832.274 347.123 843.27 301.344 843.27 301.344C843.27 301.344 865.447 309.274 863.431 326.576C861.598 342.797 878.093 348.204 874.428 368.029C870.396 389.476 838.872 393.441 857.933 413.086C869.479 424.982 860.865 445.167 852.434 458.144C847.119 466.434 820.544 474.004 826.775 470.76C841.071 463.551 749.798 508.608 749.798 508.608Z" fill="#BAC5F4"/>
<path d="M783 428.629C781.161 427.797 788.592 408.064 799.598 384.554C810.604 361.045 821.017 342.662 822.856 343.495C824.695 344.327 817.264 364.06 806.258 387.569C795.252 411.079 784.839 429.462 783 428.629Z" fill="#BAC5F4"/>
<path d="M734.036 567.183C734.036 567.183 845.653 484.277 860.315 457.063C874.977 429.848 882.492 421.017 882.492 421.017C882.492 421.017 863.248 409.843 850.418 422.278C837.588 434.714 824.392 408.401 801.666 446.069C801.666 446.069 799.1 472.562 782.605 467.156C765.743 461.568 734.036 567.183 734.036 567.183Z" fill="#E1E6FB"/>
<path d="M718.825 580.7C718.825 580.7 802.95 510.41 833.008 481.393C855.368 459.766 882.493 421.017 882.493 421.017C882.493 421.017 900.088 436.336 892.024 451.656C884.326 466.074 897.706 477.068 886.892 494.19C875.346 512.753 844.371 505.184 854.818 530.236C861.233 545.375 845.654 561.235 833.008 570.246C824.944 576.014 797.452 573.491 804.417 572.77C820.545 571.328 718.825 580.7 718.825 580.7Z" fill="#F8F8FF"/>
<path d="M790.46 539.874C789.055 538.441 803.272 522.715 822.216 504.75C841.159 486.784 857.655 473.381 859.061 474.814C860.466 476.247 846.249 491.973 827.305 509.939C808.362 527.905 791.866 541.307 790.46 539.874Z" fill="#E1E6FB"/>
<path d="M152.309 346.582C152.309 346.582 65.2511 207.265 59.5694 170.138C53.8878 133.01 49.3058 120.034 49.3058 120.034C49.3058 120.034 73.4986 114.627 82.4793 134.092C91.46 153.557 114.736 128.505 125 180.771C125 180.771 128.116 207.085 146.077 197.533C164.038 187.98 152.309 346.582 152.309 346.582Z" fill="#E1E6FB"/>
<path d="M163.306 368.028C163.306 368.028 100.441 254.123 79.3638 208.886C63.7851 175.363 49.3061 120.033 49.3061 120.033C49.3061 120.033 25.1132 130.666 28.229 151.573C31.1614 171.218 13.0168 178.607 18.1486 202.578C23.647 228.531 58.8366 231.955 38.6759 256.647C26.5795 271.606 37.0263 295.937 47.1067 311.256C53.5215 320.988 83.2127 329.099 76.2481 325.494C60.1196 317.384 163.306 368.028 163.306 368.028Z" fill="#BAC5F4"/>
<path d="M101.907 219.34C115.287 247.456 124.451 271.066 122.434 272.147C120.418 273.228 107.955 251.421 94.5761 223.305C81.1968 195.189 72.0328 171.579 74.0489 170.317C76.0649 169.056 88.5279 191.224 101.907 219.34Z" fill="#BAC5F4"/>
<path d="M183.832 438.679C183.832 438.679 55.9038 342.797 38.309 310.175C20.7142 277.553 11.9169 267.28 11.9169 267.28C11.9169 267.28 32.6274 252.862 47.473 267.461C62.3186 282.059 75.5147 249.438 102.823 294.315C102.823 294.315 106.855 326.396 125 319.006C143.511 311.617 183.832 438.679 183.832 438.679Z" fill="#F8F8FF"/>
<path d="M201.244 454.539C201.244 454.539 104.473 372.715 69.6499 338.652C43.8076 313.419 11.7338 267.461 11.7338 267.461C11.7338 267.461 -6.96066 286.926 2.75311 305.309C12.1003 322.611 -2.19545 336.489 10.4508 356.855C24.1967 378.843 58.1033 368.389 47.6564 399.389C41.425 418.133 59.3863 436.696 73.8653 447.15C83.0293 453.818 113.454 449.493 105.573 448.952C88.1611 447.51 201.244 454.539 201.244 454.539Z" fill="#E1E6FB"/>
<path d="M72.7655 359.378C93.6593 381.366 109.421 400.471 107.955 402.273C106.489 404.075 88.1609 387.674 67.2671 365.686C46.3733 343.698 30.6113 324.594 32.0775 322.792C33.5437 320.989 51.8716 337.39 72.7655 359.378Z" fill="white"/>
<path d="M559.188 474.365H700.313V658.199H559.188V474.365Z" fill="#BAC5F4"/>
<path d="M251.279 476.167H392.404V660H251.279V476.167Z" fill="#E1E6FB"/>
<path d="M337.421 49.0229H429.06V164.37H337.421V49.0229Z" fill="#E1E6FB"/>
<path d="M124.817 144.545H764.46V607.734H124.817V144.545Z" fill="#BAC5F4"/>
<path d="M124.817 144.545H747.965V607.734H124.817V144.545Z" fill="#F8F8FF"/>
<path d="M132.148 151.754H742.467V184.195H132.148V151.754Z" fill="white"/>
<path d="M132.148 182.393H742.467V600.525H132.148V182.393Z" fill="#E1E6FB"/>
<path d="M566.519 198.612H641.663V281.517H566.519V198.612Z" fill="#BAC5F4"/>
<path d="M482.211 198.612H557.355V281.517H482.211V198.612Z" fill="#BAC5F4"/>
<path d="M399.735 198.612H474.88V281.517H399.735V198.612Z" fill="#BAC5F4"/>
<path d="M315.427 198.612H390.571V281.517H315.427V198.612Z" fill="white"/>
<path d="M232.951 198.612H308.096V281.517H232.951V198.612Z" fill="white"/>
<path d="M148.643 198.612H223.787V281.517H148.643V198.612Z" fill="white"/>
<path d="M566.519 294.134H641.663V377.04H566.519V294.134Z" fill="white"/>
<path d="M482.211 294.134H557.355V377.04H482.211V294.134Z" fill="white"/>
<path d="M399.735 294.134H474.88V377.04H399.735V294.134Z" fill="#F8F8FF"/>
<path d="M315.427 294.134H390.571V377.04H315.427V294.134Z" fill="white"/>
<path d="M232.951 294.134H308.096V377.04H232.951V294.134Z" fill="white"/>
<path d="M148.643 294.134H223.787V377.04H148.643V294.134Z" fill="white"/>
<path d="M566.519 386.051H641.663V468.956H566.519V386.051Z" fill="white"/>
<path d="M482.211 386.051H557.355V468.956H482.211V386.051Z" fill="white"/>
<path d="M399.735 386.051H474.88V468.956H399.735V386.051Z" fill="#F8F8FF"/>
<path d="M315.427 386.051H390.571V468.956H315.427V386.051Z" fill="white"/>
<path d="M232.951 386.051H308.096V468.956H232.951V386.051Z" fill="#F8F8FF"/>
<path d="M148.643 386.051H223.787V468.956H148.643V386.051Z" fill="white"/>
<path d="M564.686 479.77H639.83V562.675H564.686V479.77Z" fill="#F8F8FF"/>
<path d="M480.378 479.77H555.522V562.675H480.378V479.77Z" fill="#F8F8FF"/>
<path d="M397.902 479.77H473.047V562.675H397.902V479.77Z" fill="white"/>
<path d="M313.594 479.77H388.738V562.675H313.594V479.77Z" fill="white"/>
<path d="M231.119 479.77H306.263V562.675H231.119V479.77Z" fill="#BAC5F4"/>
<path d="M146.81 479.77H221.955V562.675H146.81V479.77Z" fill="white"/>
<path d="M725.056 175.182C721.513 175.182 718.641 172.358 718.641 168.874C718.641 165.39 721.513 162.566 725.056 162.566C728.598 162.566 731.47 165.39 731.47 168.874C731.47 172.358 728.598 175.182 725.056 175.182Z" fill="#BAC5F4"/>
<path d="M704.895 175.182C701.352 175.182 698.481 172.358 698.481 168.874C698.481 165.39 701.352 162.566 704.895 162.566C708.438 162.566 711.309 165.39 711.309 168.874C711.309 172.358 708.438 175.182 704.895 175.182Z" fill="#BAC5F4"/>
<path d="M684.734 175.182C681.192 175.182 678.32 172.358 678.32 168.874C678.32 165.39 681.192 162.566 684.734 162.566C688.277 162.566 691.149 165.39 691.149 168.874C691.149 172.358 688.277 175.182 684.734 175.182Z" fill="#BAC5F4"/>
<path d="M715.891 292.332H664.573C659.991 292.332 656.326 295.937 656.326 300.442C656.326 304.948 659.991 308.553 664.573 308.553H715.891C720.473 308.553 724.139 304.948 724.139 300.442C724.139 296.117 720.473 292.332 715.891 292.332Z" fill="white"/>
<path d="M715.891 386.051H664.573C659.991 386.051 656.326 389.655 656.326 394.161C656.326 398.667 659.991 402.272 664.573 402.272H715.891C720.473 402.272 724.139 398.667 724.139 394.161C724.139 389.836 720.473 386.051 715.891 386.051Z" fill="white"/>
<path d="M715.891 479.77H664.573C659.991 479.77 656.326 483.375 656.326 487.88C656.326 492.386 659.991 495.991 664.573 495.991H715.891C720.473 495.991 724.139 492.386 724.139 487.88C724.139 483.555 720.473 479.77 715.891 479.77Z" fill="white"/>
<path d="M627.918 299.541H598.593C595.111 299.541 592.178 302.425 592.178 305.849C592.178 309.273 595.111 312.157 598.593 312.157H627.918C631.4 312.157 634.332 309.273 634.332 305.849C634.332 302.425 631.4 299.541 627.918 299.541Z" fill="#BAC5F4"/>
<path d="M629.75 322.971H616.921C614.355 322.971 612.339 324.953 612.339 327.476C612.339 330 614.355 331.982 616.921 331.982H629.75C632.316 331.982 634.332 330 634.332 327.476C634.332 325.133 632.316 322.971 629.75 322.971Z" fill="#BAC5F4"/>
<path d="M542.693 299.541H513.368C510.252 299.541 507.87 301.884 507.87 304.948C507.87 308.012 510.252 310.355 513.368 310.355H542.693C545.809 310.355 548.191 308.012 548.191 304.948C548.191 302.064 545.809 299.541 542.693 299.541Z" fill="#BAC5F4"/>
<path d="M293.433 492.386H264.109C260.993 492.386 258.611 494.729 258.611 497.793C258.611 500.857 260.993 503.199 264.109 503.199H293.433C296.549 503.199 298.932 500.857 298.932 497.793C298.932 494.909 296.549 492.386 293.433 492.386Z" fill="white"/>
<path d="M210.958 395.062H181.633C178.518 395.062 176.135 397.405 176.135 400.469C176.135 403.533 178.518 405.876 181.633 405.876H210.958C214.074 405.876 216.456 403.533 216.456 400.469C216.456 397.585 214.074 395.062 210.958 395.062Z" fill="#F5F5FC"/>
<path d="M212.791 301.343H183.466C180.351 301.343 177.968 303.686 177.968 306.75C177.968 309.814 180.351 312.157 183.466 312.157H212.791C215.907 312.157 218.289 309.814 218.289 306.75C218.289 303.866 215.907 301.343 212.791 301.343Z" fill="#F5F5FC"/>
<path d="M295.266 301.343H265.942C262.826 301.343 260.443 303.686 260.443 306.75C260.443 309.814 262.826 312.157 265.942 312.157H295.266C298.382 312.157 300.765 309.814 300.765 306.75C300.765 303.866 298.382 301.343 295.266 301.343Z" fill="#F5F5FC"/>
<path d="M540.86 331.981C536.812 331.981 533.53 328.754 533.53 324.773C533.53 320.791 536.812 317.564 540.86 317.564C544.909 317.564 548.191 320.791 548.191 324.773C548.191 328.754 544.909 331.981 540.86 331.981Z" fill="#BAC5F4"/>
<path d="M374.077 319.365C370.028 319.365 366.746 316.138 366.746 312.157C366.746 308.175 370.028 304.948 374.077 304.948C378.125 304.948 381.407 308.175 381.407 312.157C381.407 316.138 378.125 319.365 374.077 319.365Z" fill="#BAC5F4"/>
<path d="M348.418 319.365C344.369 319.365 341.087 316.138 341.087 312.157C341.087 308.175 344.369 304.948 348.418 304.948C352.466 304.948 355.748 308.175 355.748 312.157C355.748 316.138 352.466 319.365 348.418 319.365Z" fill="#BAC5F4"/>
<path d="M348.418 409.48C344.369 409.48 341.087 406.252 341.087 402.271C341.087 398.289 344.369 395.062 348.418 395.062C352.466 395.062 355.748 398.289 355.748 402.271C355.748 406.252 352.466 409.48 348.418 409.48Z" fill="#BAC5F4"/>
<path d="M374.077 409.48C370.028 409.48 366.746 406.252 366.746 402.271C366.746 398.289 370.028 395.062 374.077 395.062C378.125 395.062 381.407 398.289 381.407 402.271C381.407 406.252 378.125 409.48 374.077 409.48Z" fill="#BAC5F4"/>
<path d="M350.25 501.397C346.202 501.397 342.92 498.169 342.92 494.188C342.92 490.207 346.202 486.979 350.25 486.979C354.299 486.979 357.581 490.207 357.581 494.188C357.581 498.169 354.299 501.397 350.25 501.397Z" fill="#BAC5F4"/>
<path d="M375.909 501.397C371.861 501.397 368.579 498.169 368.579 494.188C368.579 490.207 371.861 486.979 375.909 486.979C379.958 486.979 383.24 490.207 383.24 494.188C383.24 498.169 379.958 501.397 375.909 501.397Z" fill="#BAC5F4"/>
<path d="M599.51 503.2C595.461 503.2 592.179 499.972 592.179 495.991C592.179 492.01 595.461 488.782 599.51 488.782C603.558 488.782 606.84 492.01 606.84 495.991C606.84 499.972 603.558 503.2 599.51 503.2Z" fill="#BAC5F4"/>
<path d="M625.169 503.2C621.12 503.2 617.838 499.972 617.838 495.991C617.838 492.01 621.12 488.782 625.169 488.782C629.218 488.782 632.5 492.01 632.5 495.991C632.5 499.972 629.218 503.2 625.169 503.2Z" fill="#BAC5F4"/>
<path d="M374.077 222.041C370.028 222.041 366.746 218.814 366.746 214.833C366.746 210.851 370.028 207.624 374.077 207.624C378.125 207.624 381.407 210.851 381.407 214.833C381.407 218.814 378.125 222.041 374.077 222.041Z" fill="#BAC5F4"/>
<path d="M460.218 222.041C456.169 222.041 452.887 218.814 452.887 214.833C452.887 210.851 456.169 207.624 460.218 207.624C464.266 207.624 467.548 210.851 467.548 214.833C467.548 218.814 464.266 222.041 460.218 222.041Z" fill="white"/>
<path d="M434.558 222.041C430.51 222.041 427.228 218.814 427.228 214.833C427.228 210.851 430.51 207.624 434.558 207.624C438.607 207.624 441.889 210.851 441.889 214.833C441.889 218.814 438.607 222.041 434.558 222.041Z" fill="white"/>
<path d="M542.693 222.041C538.645 222.041 535.363 218.814 535.363 214.833C535.363 210.851 538.645 207.624 542.693 207.624C546.742 207.624 550.024 210.851 550.024 214.833C550.024 218.814 546.742 222.041 542.693 222.041Z" fill="white"/>
<path d="M517.034 222.041C512.986 222.041 509.704 218.814 509.704 214.833C509.704 210.851 512.986 207.624 517.034 207.624C521.083 207.624 524.365 210.851 524.365 214.833C524.365 218.814 521.083 222.041 517.034 222.041Z" fill="white"/>
<path d="M625.169 222.041C621.12 222.041 617.838 218.814 617.838 214.833C617.838 210.851 621.12 207.624 625.169 207.624C629.218 207.624 632.5 210.851 632.5 214.833C632.5 218.814 629.218 222.041 625.169 222.041Z" fill="white"/>
<path d="M599.51 222.041C595.461 222.041 592.179 218.814 592.179 214.833C592.179 210.851 595.461 207.624 599.51 207.624C603.558 207.624 606.84 210.851 606.84 214.833C606.84 218.814 603.558 222.041 599.51 222.041Z" fill="white"/>
<path d="M340.478 234.531H338.893V235.716H340.478V238.368H341.938V235.716H347.14V234.861L342.024 226.944H340.478V234.531ZM345.492 234.531H341.938V228.929L342.11 229.243L345.492 234.531Z" fill="#BCC6F0"/>
<path d="M502.239 238.368H509.724V237.325L505.77 232.931C505.184 232.267 504.781 231.728 504.562 231.315C504.337 230.896 504.224 230.465 504.224 230.02C504.224 229.424 504.405 228.935 504.766 228.553C505.127 228.171 505.608 227.98 506.209 227.98C506.931 227.98 507.494 228.187 507.896 228.6C508.294 229.008 508.493 229.578 508.493 230.31H509.944C509.944 229.259 509.607 228.409 508.932 227.76C508.252 227.112 507.344 226.787 506.209 226.787C505.148 226.787 504.308 227.067 503.691 227.627C503.074 228.181 502.765 228.922 502.765 229.847C502.765 230.972 503.482 232.311 504.915 233.865L507.975 237.183H502.239V238.368Z" fill="white"/>
<path d="M587.867 321.12L592.598 331.728H594.121L589.405 321.497H595.588V320.304H587.867V321.12Z" fill="#BCC6F0"/>
<path d="M357.726 331.835H359.186V322.161L362.112 323.236V321.918L357.954 320.357H357.726V331.835ZM346.31 326.963C346.31 328.663 346.6 329.926 347.181 330.753C347.762 331.579 348.669 331.992 349.904 331.992C351.122 331.992 352.025 331.59 352.611 330.784C353.196 329.973 353.5 328.765 353.521 327.159V325.221C353.521 323.542 353.23 322.295 352.65 321.479C352.069 320.663 351.159 320.255 349.919 320.255C348.69 320.255 347.785 320.65 347.205 321.439C346.624 322.224 346.326 323.438 346.31 325.08V326.963ZM347.762 324.978C347.762 323.749 347.934 322.854 348.279 322.295C348.625 321.73 349.171 321.447 349.919 321.447C350.662 321.447 351.203 321.727 351.543 322.287C351.883 322.846 352.059 323.707 352.069 324.868V327.191C352.069 328.425 351.891 329.338 351.536 329.929C351.175 330.515 350.631 330.808 349.904 330.808C349.187 330.808 348.656 330.53 348.311 329.976C347.96 329.421 347.777 328.548 347.762 327.355V324.978Z" fill="#BCC6F0"/>
<path d="M435.345 425.14H436.804V415.466L439.731 416.541V415.223L435.572 413.661H435.345V425.14ZM430.425 419.413L429.845 413.716H423.991V415.058H428.613L428.958 418.173C428.398 417.843 427.763 417.679 427.051 417.679C426.01 417.679 425.184 418.024 424.572 418.714C423.96 419.399 423.654 420.328 423.654 421.5C423.654 422.676 423.973 423.605 424.611 424.285C425.244 424.96 426.131 425.297 427.271 425.297C428.281 425.297 429.104 425.017 429.743 424.458C430.381 423.898 430.744 423.124 430.833 422.135H429.46C429.371 422.789 429.138 423.283 428.762 423.618C428.385 423.948 427.888 424.112 427.271 424.112C426.596 424.112 426.068 423.882 425.686 423.422C425.299 422.962 425.106 422.326 425.106 421.515C425.106 420.752 425.315 420.14 425.733 419.679C426.146 419.214 426.698 418.981 427.389 418.981C428.022 418.981 428.519 419.12 428.88 419.397L429.264 419.711L430.425 419.413Z" fill="#BCC6F0"/>
<path d="M187.918 428.746H189.378V419.071L192.304 420.146V418.828L188.146 417.267H187.918V428.746ZM176.738 420.303C176.738 420.873 176.889 421.381 177.193 421.825C177.491 422.27 177.896 422.618 178.409 422.869C177.813 423.125 177.342 423.499 176.997 423.991C176.646 424.483 176.471 425.04 176.471 425.662C176.471 426.651 176.806 427.438 177.475 428.024C178.139 428.61 179.016 428.903 180.104 428.903C181.202 428.903 182.083 428.61 182.748 428.024C183.407 427.433 183.736 426.645 183.736 425.662C183.736 425.045 183.569 424.488 183.234 423.991C182.894 423.494 182.426 423.117 181.83 422.861C182.337 422.61 182.737 422.262 183.03 421.818C183.323 421.373 183.47 420.868 183.47 420.303C183.47 419.341 183.161 418.577 182.544 418.012C181.927 417.447 181.113 417.165 180.104 417.165C179.099 417.165 178.289 417.447 177.671 418.012C177.049 418.577 176.738 419.341 176.738 420.303ZM177.922 425.631C177.922 424.993 178.126 424.472 178.534 424.069C178.937 423.667 179.465 423.465 180.119 423.465C180.773 423.465 181.299 423.664 181.696 424.062C182.089 424.459 182.285 424.982 182.285 425.631C182.285 426.279 182.094 426.789 181.712 427.161C181.325 427.532 180.789 427.718 180.104 427.718C179.424 427.718 178.89 427.532 178.503 427.161C178.116 426.784 177.922 426.274 177.922 425.631ZM180.104 418.357C180.674 418.357 181.137 418.535 181.492 418.891C181.843 419.241 182.018 419.72 182.018 420.327C182.018 420.907 181.845 421.378 181.5 421.739C181.15 422.095 180.684 422.273 180.104 422.273C179.523 422.273 179.06 422.095 178.715 421.739C178.364 421.378 178.189 420.907 178.189 420.327C178.189 419.746 178.37 419.273 178.731 418.907C179.091 418.54 179.549 418.357 180.104 418.357Z" fill="#BCC6F0"/>
<path d="M528.393 514.156H535.878V513.113L531.924 508.719C531.338 508.055 530.935 507.516 530.716 507.103C530.491 506.684 530.378 506.253 530.378 505.808C530.378 505.212 530.559 504.723 530.92 504.341C531.281 503.959 531.762 503.768 532.363 503.768C533.085 503.768 533.647 503.975 534.05 504.388C534.448 504.796 534.647 505.366 534.647 506.098H536.098C536.098 505.047 535.761 504.197 535.086 503.548C534.406 502.9 533.498 502.575 532.363 502.575C531.302 502.575 530.462 502.855 529.845 503.415C529.228 503.969 528.919 504.71 528.919 505.635C528.919 506.76 529.636 508.099 531.069 509.653L534.129 512.971H528.393V514.156Z" fill="#BCC6F0"/>
<path d="M507.217 509.284C507.217 510.984 507.507 512.247 508.087 513.073C508.668 513.9 509.576 514.313 510.81 514.313C512.029 514.313 512.931 513.91 513.517 513.105C514.103 512.294 514.406 511.086 514.427 509.48V507.542C514.427 505.863 514.137 504.615 513.556 503.799C512.976 502.983 512.065 502.575 510.826 502.575C509.596 502.575 508.692 502.97 508.111 503.76C507.53 504.545 507.232 505.758 507.217 507.401V509.284ZM508.668 507.299C508.668 506.07 508.841 505.175 509.186 504.615C509.531 504.051 510.078 503.768 510.826 503.768C511.568 503.768 512.11 504.048 512.45 504.608C512.79 505.167 512.965 506.028 512.976 507.189V509.511C512.976 510.746 512.798 511.659 512.442 512.25C512.081 512.835 511.537 513.128 510.81 513.128C510.093 513.128 509.562 512.851 509.217 512.297C508.867 511.742 508.684 510.869 508.668 509.676V507.299Z" fill="#BCC6F0"/>
<path d="M195.379 178.247L334.671 198.432C339.986 199.153 343.835 204.38 343.102 210.147L322.575 370.552C321.842 376.319 316.893 380.284 311.578 379.383L172.286 359.197C166.971 358.476 163.122 353.25 163.855 347.482L184.382 187.078C185.116 181.491 190.064 177.526 195.379 178.247Z" fill="#BCC6F0"/>
<path d="M129.215 616.204C125 617.105 110.704 612.239 108.322 609.896C107.588 609.175 106.855 606.832 106.306 605.931C105.756 602.867 104.289 604.489 103.006 604.129C98.791 603.227 87.6111 600.164 82.4792 603.047C81.5628 605.39 81.3796 607.553 80.8297 608.995C79.3635 614.942 78.6304 620.89 78.0806 626.837C77.714 630.622 80.0966 633.866 83.5789 634.227C84.6786 634.227 85.9615 634.227 87.0612 634.047C96.0419 631.704 114.003 631.163 120.968 628.099C132.698 625.035 139.296 618.547 129.215 616.204Z" fill="#4B44BE"/>
<path d="M267.958 623.232C263.925 624.313 249.08 620.528 246.697 618.365C245.781 617.644 245.048 615.482 244.315 614.581C243.582 611.697 242.299 613.139 240.832 612.959C236.617 612.238 225.254 609.895 220.122 613.139C219.206 615.482 219.389 617.825 218.839 619.086C217.923 625.034 217.189 631.162 217.006 637.109C216.823 640.894 219.572 643.958 223.054 644.138C224.154 644.138 225.437 644.138 226.537 643.778C235.334 640.894 253.295 639.092 260.077 635.667C271.806 631.883 278.038 624.854 267.958 623.232Z" fill="#4B44BE"/>
<path d="M81.7463 603.408C88.7109 604.489 105.756 604.669 105.756 604.669C105.756 604.669 106.856 595.838 111.987 578.896C117.302 561.775 143.695 507.886 143.695 507.886C149.193 499.055 154.875 480.851 154.875 480.851L162.756 411.103C162.756 411.103 204.726 480.671 203.993 496.531C203.444 512.392 213.707 574.03 213.707 574.03C214.807 583.222 219.939 613.861 219.939 613.861C227.636 612.779 235.517 612.599 243.398 613.14C242.299 600.524 238.083 548.438 238.083 548.438C238.083 548.438 235.334 508.066 234.784 483.555C234.234 459.044 217.739 407.138 206.743 383.528C205.276 379.563 203.993 375.417 203.077 371.272L105.206 384.429C107.405 391.097 109.238 397.766 110.521 404.614C116.203 435.434 120.235 487.16 120.235 487.16C104.839 505.543 95.309 540.327 95.309 540.327C89.2608 561.234 81.7463 603.408 81.7463 603.408Z" fill="url(#paint0_linear)"/>
<path d="M190.614 176.444C175.585 173.381 160.006 179.148 160.006 179.148L157.441 180.049L141.312 202.037L156.158 197.892C160.19 196.45 167.887 194.107 171.553 194.467C174.302 194.287 180.534 195.729 183.466 193.025C185.665 191.944 186.215 189.962 190.797 185.095C194.096 181.13 193.18 180.049 194.463 179.508C196.295 178.607 194.829 176.805 190.614 176.444Z" fill="url(#paint1_linear)"/>
<path d="M243.948 370.912C243.765 370.011 240.832 370.552 240.466 369.831C237.35 365.145 233.501 359.017 225.62 356.133C223.421 355.412 221.038 354.872 218.656 354.511L213.34 364.424C214.074 366.226 214.807 367.848 215.906 369.29C219.205 373.976 225.987 380.284 238.45 378.482C241.199 378.301 244.315 374.156 243.948 370.912Z" fill="url(#paint2_linear)"/>
<path d="M132.515 150.492C130.682 150.492 93.1097 181.311 92.7432 184.735C92.7432 186.538 92.5599 194.468 91.2769 199.514C89.994 204.38 86.3284 211.229 86.3284 211.229C86.3284 211.229 89.6274 217.717 98.0582 218.979C106.122 220.24 116.936 217.357 116.936 217.357C116.936 217.357 114.37 200.235 117.486 198.433C120.235 196.811 120.968 198.433 130.132 190.322C139.296 182.212 136.363 161.125 136.18 159.864C136.18 158.422 134.347 150.492 132.515 150.492Z" fill="url(#paint3_linear)"/>
<path d="M175.402 294.855C163.122 282.96 155.424 246.193 151.576 237.002C147.727 227.81 141.495 225.107 138.929 224.206C137.646 223.665 131.048 221.682 125.917 220.24L162.389 195.909C167.338 185.997 157.624 180.049 157.624 180.049L116.203 202.037V216.996L102.823 214.653L86.6949 211.229C81.7464 209.967 76.7979 209.246 71.666 208.706C69.65 208.526 67.4506 208.706 65.4345 209.607L64.3349 209.967C61.769 210.869 59.7529 212.851 58.47 215.374C55.904 221.322 54.0713 227.81 53.3382 234.479C51.8719 245.112 59.5696 269.083 67.2673 286.565C70.7496 293.954 83.9457 332.163 87.2448 341.715C103.373 381.726 104.656 384.79 104.656 384.79C154.325 384.249 202.894 372.534 202.894 372.534C205.093 368.209 197.029 355.412 197.029 355.412L212.058 368.749C218.656 370.912 223.971 355.412 223.971 355.412C223.971 355.412 185.849 304.768 175.402 294.855Z" fill="url(#paint4_linear)"/>
<path d="M85.7783 152.294C86.5115 150.672 88.3443 147.247 89.4439 145.986C91.2767 144.003 93.1095 142.021 95.1256 140.218C96.9584 138.957 101.54 136.434 103.373 135.532C109.605 133.55 118.035 135.532 124.267 135.893C129.949 135.532 133.981 142.922 136.18 147.788C138.379 152.654 134.164 152.114 134.531 155.898C134.531 156.619 132.698 157.701 131.048 158.602C129.399 159.503 124.817 167.433 123.167 171.038C121.518 162.026 115.836 178.067 116.936 180.049C114.736 181.671 111.987 188.159 107.772 190.142C105.023 188.88 99.7076 183.834 92.5597 185.276C92.0099 183.834 85.0453 178.427 84.3121 169.055C84.1289 166.352 83.579 156.439 85.7783 152.294Z" fill="url(#paint5_linear)"/>
<path opacity="0.07" d="M107.223 193.026C107.223 193.026 113.454 198.973 117.302 198.973L116.386 204.019L116.569 211.408C116.569 211.408 114.187 207.263 111.071 203.118C109.239 200.054 107.773 196.63 107.223 193.026Z" fill="black"/>
<path opacity="0.07" d="M130.132 267.1C130.132 267.1 138.013 292.512 162.572 319.006C187.132 345.5 192.997 350.907 192.997 350.907C192.997 350.907 197.945 357.575 196.479 362.081C194.829 366.587 184.199 351.628 160.19 339.913C146.444 333.244 141.862 321.89 135.447 305.849C127.566 285.664 125.733 281.338 124.634 273.949C121.884 255.025 130.132 267.1 130.132 267.1Z" fill="black"/>
<path opacity="0.07" d="M162.756 411.283C162.756 411.283 151.209 437.957 147.91 450.934C144.428 464.451 144.428 483.916 134.347 493.468C122.801 504.282 109.238 540.508 105.939 548.077C101.54 559.071 92.3764 619.448 94.9423 623.593C97.5082 627.739 107.955 621.611 107.955 621.611C107.955 621.611 104.106 606.291 107.405 592.414C110.704 578.536 125.916 541.409 135.447 523.025C144.061 506.625 152.859 487.52 154.875 476.526C156.891 465.352 162.756 411.283 162.756 411.283Z" fill="black"/>
<path d="M740.451 604.669L753.28 607.553C753.28 607.553 756.396 617.465 757.862 622.872C758.046 623.233 758.229 624.134 758.412 624.674C758.595 625.575 758.779 626.477 758.779 627.378C758.412 632.064 756.579 636.209 752.364 638.372C747.599 640.715 743.933 642.877 738.801 638.372C733.853 633.866 732.936 630.982 734.952 623.052C736.969 615.122 740.451 604.669 740.451 604.669Z" fill="#4B44BE"/>
<path d="M666.223 621.07C674.837 618.367 678.502 607.913 678.502 607.913L695.914 607.012C695.914 607.012 696.281 617.646 696.83 623.413C697.38 631.163 695.914 634.587 690.782 634.047C683.818 633.506 655.226 636.029 650.827 633.145C644.779 629.901 658.159 623.593 666.223 621.07Z" fill="#4B44BE"/>
<path d="M767.209 364.063C767.209 364.063 773.624 372.894 775.823 396.504C777.84 420.114 773.258 464.992 771.241 473.643C769.042 482.294 760.611 563.397 758.412 569.344C756.213 575.292 753.463 607.553 753.463 607.553L739.717 607.913C739.717 607.913 735.685 565.74 735.685 554.566C735.685 543.391 730.004 437.957 730.37 430.207C730.737 422.457 728.904 424.981 728.904 424.981C728.904 424.981 716.808 462.649 713.325 468.957C709.66 475.265 703.428 487.52 703.428 487.52C703.428 487.52 701.962 526.99 700.313 549.88C698.663 572.769 696.647 608.815 696.647 608.815L678.136 608.454C678.136 608.454 673.92 548.258 673.92 535.461C673.92 522.845 670.071 492.386 670.071 488.782C670.071 485.177 682.168 423.719 682.168 423.719L690.599 363.703L767.209 364.063Z" fill="url(#paint6_linear)"/>
<path d="M745.399 165.27C751.631 167.613 759.695 198.252 759.695 198.252L759.878 198.071L763.361 201.496L761.894 207.984L755.846 309.453L724.322 302.785L696.647 273.948L679.419 281.878C679.419 281.878 678.136 318.825 677.953 320.808C677.769 322.79 674.837 378.481 674.837 382.266C674.654 386.231 657.792 403.713 655.043 401.731C646.795 395.963 660.541 385.51 663.84 382.807C665.856 381.365 669.888 329.459 670.255 323.331C670.621 317.203 660.724 301.703 677.769 281.157C690.232 266.198 697.014 227.809 707.461 184.194C712.959 161.485 716.258 154.816 721.756 154.816C726.522 155.177 733.303 160.944 745.399 165.27Z" fill="url(#paint7_linear)"/>
<path d="M750.714 251.78C750.898 252.141 762.811 257.548 767.943 263.856C773.074 269.983 777.29 278.995 777.29 278.995C777.29 278.995 784.804 296.477 790.119 309.454C792.868 316.483 802.216 344.959 791.036 346.04C780.589 346.941 757.496 322.791 753.83 318.285L749.798 309.454C749.431 308.372 756.029 296.477 755.846 295.396C755.663 293.593 740.451 284.942 738.251 290.169C737.518 291.971 735.502 296.838 734.769 298.279C733.303 302.064 755.296 309.273 755.296 312.517C755.296 316.663 757.129 331.802 760.062 339.191C762.994 346.581 767.576 364.243 767.576 364.243L690.232 364.424C690.232 364.424 692.798 330.54 691.698 319.366C691.698 319.366 688.399 282.419 686.383 278.815C684.367 275.21 681.068 324.413 681.618 334.505C681.985 341.534 675.57 383.888 673.737 385.33C670.805 387.673 663.657 382.987 663.657 382.987C663.657 382.987 664.023 336.488 664.207 328.918C664.573 321.169 664.023 258.809 674.47 247.455C684.917 236.281 687.666 236.461 696.28 239.525C704.895 242.408 709.11 245.292 720.84 247.274C727.988 248.536 735.502 247.635 742.1 244.751C740.267 238.263 744.116 249.257 743.566 246.193" fill="url(#paint8_linear)"/>
<path d="M739.352 147.788C739.352 147.788 754.747 148.329 759.146 163.108C763.545 177.886 764.095 198.613 764.278 201.857C764.461 205.281 762.628 228.531 764.645 235.019C766.477 240.786 771.243 251.24 774.358 258.629C775.458 261.513 776.374 264.577 776.924 267.641L777.291 270.164C776.558 272.687 773.625 274.309 771.059 273.408C770.876 273.228 770.693 273.228 770.509 273.228C769.043 272.507 767.577 271.786 766.111 270.885C761.529 268.181 755.481 260.792 750.899 258.449C745.95 256.106 740.268 244.932 739.535 244.211C738.802 243.49 738.986 240.606 738.986 237.903C738.436 224.025 741.185 211.409 744.484 204.741C747.783 198.072 755.297 185.096 750.166 177.526C744.85 169.956 734.037 164.009 733.487 162.207C732.937 160.404 732.754 169.416 726.889 172.66C721.024 175.904 712.96 184.555 712.96 186.537C712.96 188.52 710.944 194.648 716.625 205.462C722.124 216.275 726.523 229.973 718.825 240.246C711.127 250.519 691.883 264.757 690.6 268.001C689.317 271.245 690.6 285.664 691.15 293.774C691.7 301.884 675.571 279.896 676.121 269.443C676.671 258.809 674.838 254.304 685.651 238.263C696.465 222.223 703.796 194.287 703.979 187.619C704.346 180.77 707.645 162.207 714.243 156.8C719.924 152.294 721.207 147.788 732.937 147.788C734.77 147.428 737.153 147.608 739.352 147.788Z" fill="url(#paint9_linear)"/>
<g opacity="0.07">
<path d="M746.315 607.373C746.132 607.733 746.132 607.913 746.132 608.274C745.949 610.437 746.132 615.663 748.515 618.907C751.447 623.233 744.483 632.965 744.483 635.308C744.483 637.651 747.598 639.814 749.981 639.273C752.18 638.552 761.528 633.506 757.862 622.332C756.396 617.826 755.479 613.861 754.746 611.518C754.196 610.256 753.83 608.995 753.463 607.733C753.28 607.193 753.28 606.652 753.28 605.931C753.463 605.21 753.463 604.309 753.463 603.408C754.013 599.082 772.341 465.352 773.074 460.306C773.624 455.8 776.373 427.504 776.007 410.923C776.19 409.481 776.19 408.039 776.19 406.778C776.19 406.417 776.007 404.795 776.007 404.074C775.823 402.632 775.823 401.01 775.64 399.568C776.007 398.307 775.823 398.307 775.64 396.324C775.457 394.342 775.64 393.26 775.457 391.999C773.624 380.825 769.409 368.028 767.393 364.424L766.843 362.441C766.843 362.441 762.261 345.5 760.611 342.255C759.328 339.372 755.296 324.413 755.846 321.349C756.029 319.547 749.798 312.878 749.798 312.878L748.515 311.797C747.965 311.616 747.232 311.797 746.682 311.977C745.399 312.518 740.084 308.012 739.168 310.896C732.936 330.36 730.37 338.651 741.367 350.366C752.364 362.081 742.283 372.354 742.1 380.644C741.55 400.83 751.631 398.667 752.18 411.283C752.73 423.899 749.981 432.911 749.798 439.579C749.248 461.207 749.615 465.532 750.714 474.003C751.814 482.474 757.862 498.514 751.264 530.235C744.666 561.955 745.582 564.658 746.315 582.681C747.049 600.344 746.315 607.373 746.315 607.373Z" fill="black"/>
</g>
<path d="M756.58 280.436L756.397 280.256C755.664 279.896 751.082 277.553 747.783 276.291C744.117 274.849 739.902 286.924 738.802 289.267C738.619 289.448 738.619 289.448 739.535 289.628C742.101 289.988 744.85 290.349 747.233 291.07C750.898 291.971 755.114 294.855 755.297 294.855C755.48 295.035 756.58 292.692 758.779 287.285C759.329 286.023 760.246 282.779 759.329 282.058L756.58 280.436Z" fill="#EFEFEF"/>
<path opacity="0.07" d="M728.721 216.815C726.338 217.716 723.773 217.176 721.94 215.374C718.824 212.31 723.04 222.943 722.49 225.286C721.757 227.448 728.721 216.815 728.721 216.815Z" fill="black"/>
<path d="M749.798 308.372C749.798 308.372 735.136 299.001 734.953 299.361C734.587 300.262 733.304 303.686 733.304 303.686C733.304 303.686 732.204 305.849 732.571 306.57C732.937 307.291 746.866 313.058 746.866 313.058C747.415 312.878 747.965 312.697 748.148 312.157C748.698 311.075 749.248 309.814 749.798 308.372Z" fill="#EFEFEF"/>
</g>
<defs>
<linearGradient id="paint0_linear" x1="81.8309" y1="492.64" x2="243.714" y2="492.64" gradientUnits="userSpaceOnUse">
<stop stop-color="#E5A4ED"/>
<stop offset="1" stop-color="#7A5BF5"/>
</linearGradient>
<linearGradient id="paint1_linear" x1="141.526" y1="188.732" x2="195.368" y2="188.732" gradientUnits="userSpaceOnUse">
<stop stop-color="#F87B58"/>
<stop offset="0.41" stop-color="#F89453"/>
<stop offset="0.94" stop-color="#F8C548"/>
</linearGradient>
<linearGradient id="paint2_linear" x1="213.231" y1="366.787" x2="244.017" y2="366.787" gradientUnits="userSpaceOnUse">
<stop stop-color="#F87B58"/>
<stop offset="0.41" stop-color="#F89453"/>
<stop offset="0.94" stop-color="#F8C548"/>
</linearGradient>
<linearGradient id="paint3_linear" x1="86.5116" y1="184.969" x2="137.148" y2="184.969" gradientUnits="userSpaceOnUse">
<stop stop-color="#F87B58"/>
<stop offset="0.41" stop-color="#F89453"/>
<stop offset="0.94" stop-color="#F8C548"/>
</linearGradient>
<linearGradient id="paint4_linear" x1="53.2562" y1="282.283" x2="224.169" y2="282.283" gradientUnits="userSpaceOnUse">
<stop stop-color="#4B45BD"/>
<stop offset="1" stop-color="#58CAEA"/>
</linearGradient>
<linearGradient id="paint5_linear" x1="80.2144" y1="174.026" x2="128.986" y2="152.506" gradientUnits="userSpaceOnUse">
<stop stop-color="#E5A4ED"/>
<stop offset="1" stop-color="#7A5BF5"/>
</linearGradient>
<linearGradient id="paint6_linear" x1="776.25" y1="486.512" x2="669.616" y2="486.512" gradientUnits="userSpaceOnUse">
<stop stop-color="#E5A4ED"/>
<stop offset="1" stop-color="#7A5BF5"/>
</linearGradient>
<linearGradient id="paint7_linear" x1="763.334" y1="278.631" x2="652.256" y2="278.631" gradientUnits="userSpaceOnUse">
<stop stop-color="#F87B58"/>
<stop offset="0.5" stop-color="#F8C548"/>
<stop offset="1" stop-color="#F89C51"/>
</linearGradient>
<linearGradient id="paint8_linear" x1="796.256" y1="311.985" x2="663.898" y2="311.985" gradientUnits="userSpaceOnUse">
<stop stop-color="#4B45BD"/>
<stop offset="1" stop-color="#58CAEA"/>
</linearGradient>
<linearGradient id="paint9_linear" x1="777.194" y1="221.494" x2="675.61" y2="221.494" gradientUnits="userSpaceOnUse">
<stop stop-color="#E5A4ED"/>
<stop offset="1" stop-color="#7A5BF5"/>
</linearGradient>
<clipPath id="clip0">
<rect width="894.226" height="660" fill="white" transform="matrix(-1 0 0 1 894.226 0)"/>
</clipPath>
</defs>
</svg>
