<svg width="900" height="611" viewBox="0 0 900 611" fill="none" xmlns="http://www.w3.org/2000/svg">
<path d="M51.0241 104.838L27.6503 127.908L49.4572 149.432L72.831 126.362L51.0241 104.838Z" fill="#E1E6FB"/>
<path d="M76.7354 132.306L53.3617 155.377L75.1685 176.901L98.5423 153.83L76.7354 132.306Z" fill="#E1E6FB"/>
<path d="M82.2806 77.6188L58.9068 100.689L80.7137 122.213L104.087 99.1428L82.2806 77.6188Z" fill="#E1E6FB"/>
<path d="M821.083 471.216L797.709 494.287L819.516 515.811L842.889 492.74L821.083 471.216Z" fill="#E1E6FB"/>
<path d="M846.807 498.68L823.433 521.751L845.24 543.275L868.614 520.204L846.807 498.68Z" fill="#E1E6FB"/>
<path d="M819.103 526.023L795.729 549.094L817.536 570.618L840.909 547.547L819.103 526.023Z" fill="#E1E6FB"/>
<path d="M455.768 0.0229492H230.471V114.856H455.768V0.0229492Z" fill="#E1E6FB"/>
<path d="M180.611 430.191H95.6626V616.111H180.611V430.191Z" fill="#E1E6FB"/>
<path d="M136.29 446.595C136.29 446.595 62.4221 328.117 58.7287 297.13C55.0353 266.143 51.3419 255.207 51.3419 255.207C51.3419 255.207 73.5023 251.561 80.889 267.966C88.2758 284.371 110.436 264.321 117.823 308.067C117.823 308.067 119.67 329.939 136.29 322.648C152.91 315.357 136.29 446.595 136.29 446.595Z" fill="#E1E6FB"/>
<path d="M145.523 464.823C145.523 464.823 92.7079 368.218 75.349 329.94C62.4222 301.505 51.342 255.208 51.342 255.208C51.342 255.208 28.997 263.228 31.0283 280.726C32.875 297.131 16.2548 302.599 19.9482 322.649C24.0109 344.34 55.774 348.35 36.5684 368.218C24.9342 380.248 33.6137 400.662 42.1085 413.786C47.4639 422.171 74.241 429.826 67.9622 426.545C53.558 419.254 145.523 464.823 145.523 464.823Z" fill="#BAC5F4"/>
<path d="M112.07 383.937C113.923 383.095 106.435 363.138 95.3452 339.362C84.2556 315.586 73.7636 296.994 71.9107 297.836C70.0577 298.678 77.5455 318.635 88.6351 342.411C99.7247 366.187 110.217 384.779 112.07 383.937Z" fill="#BAC5F4"/>
<path d="M161.405 524.062C161.405 524.062 48.9412 440.216 34.1677 412.693C19.3941 385.169 11.8227 376.238 11.8227 376.238C11.8227 376.238 31.213 364.937 44.1398 377.514C57.0667 390.091 70.3629 363.478 93.2619 401.574C93.2619 401.574 95.8473 428.368 112.468 422.9C129.457 417.249 161.405 524.062 161.405 524.062Z" fill="#E1E6FB"/>
<path d="M176.731 537.733C176.731 537.733 91.9677 466.646 61.6819 437.3C39.1522 415.427 11.8211 376.238 11.8211 376.238C11.8211 376.238 -5.90718 391.731 2.21828 407.224C9.9744 421.806 -3.50647 432.925 7.38903 450.241C19.0232 469.015 50.2324 461.36 39.7062 486.696C33.2428 502.007 48.9397 518.047 61.6819 527.161C69.8073 532.994 97.5078 530.442 90.4903 529.713C74.2394 528.255 176.731 537.733 176.731 537.733Z" fill="#F8F8FF"/>
<path d="M104.553 496.444C105.969 494.994 91.6433 479.09 72.5561 460.921C53.4688 442.751 36.8476 429.196 35.4316 430.646C34.0155 432.095 48.3409 447.999 67.4281 466.169C86.5154 484.338 103.137 497.893 104.553 496.444Z" fill="#E1E6FB"/>
<path d="M747.546 300.958C747.546 300.958 835.264 160.06 840.989 122.512C846.714 84.9633 851.33 71.8396 851.33 71.8396C851.33 71.8396 826.954 66.3713 817.905 86.057C808.856 105.743 785.403 80.4065 775.062 133.266C775.062 133.266 771.922 159.878 753.825 150.218C735.727 140.557 747.546 300.958 747.546 300.958Z" fill="#E1E6FB"/>
<path d="M736.466 322.649C736.466 322.649 799.807 207.451 821.044 161.7C836.741 127.797 851.33 71.8389 851.33 71.8389C851.33 71.8389 875.707 82.5931 872.567 103.737C869.613 123.605 887.895 131.078 882.724 155.321C877.184 181.568 841.727 185.031 862.041 210.003C874.229 225.132 863.703 249.739 853.546 265.232C847.083 275.075 817.166 283.277 824.184 279.632C840.435 271.429 736.466 322.649 736.466 322.649Z" fill="#BAC5F4"/>
<path d="M798.33 172.272C784.849 200.707 775.616 224.585 777.647 225.679C779.679 226.772 792.236 204.717 805.717 176.282C819.198 147.847 828.431 123.969 826.4 122.693C824.368 121.418 811.811 143.837 798.33 172.272Z" fill="#BAC5F4"/>
<path d="M715.783 394.1C715.783 394.1 844.682 297.13 862.41 264.139C880.139 231.147 889.003 220.757 889.003 220.757C889.003 220.757 868.135 206.175 853.177 220.94C838.219 235.704 824.923 202.712 797.407 248.098C797.407 248.098 793.344 280.543 775.062 273.07C756.41 265.597 715.783 394.1 715.783 394.1Z" fill="#F8F8FF"/>
<path d="M698.239 410.14C698.239 410.14 795.745 327.388 830.832 292.938C856.87 267.419 889.188 220.939 889.188 220.939C889.188 220.939 908.024 240.625 898.236 259.217C888.818 276.715 903.222 290.751 890.48 311.348C876.63 333.585 842.466 323.013 852.992 354.364C859.271 373.321 841.174 392.095 826.585 402.667C817.351 409.411 786.696 405.037 794.637 404.49C812.18 403.032 698.239 410.14 698.239 410.14Z" fill="#E1E6FB"/>
<path d="M827.693 313.9C806.64 336.137 790.759 355.458 792.236 357.281C793.713 359.104 812.18 342.517 833.233 320.279C854.285 298.042 870.167 278.721 868.689 276.898C867.212 275.075 848.745 291.662 827.693 313.9Z" fill="white"/>
<path d="M337.58 430.191H195.384V616.111H337.58V430.191Z" fill="#BAC5F4"/>
<path d="M647.825 432.014H505.629V617.934H647.825V432.014Z" fill="#E1E6FB"/>
<path d="M561.03 0.0229492H468.695V116.679H561.03V0.0229492Z" fill="#E1E6FB"/>
<path d="M775.246 96.6284H130.75V565.074H775.246V96.6284Z" fill="#BAC5F4"/>
<path d="M775.246 96.6284H147.37V565.074H775.246V96.6284Z" fill="#F8F8FF"/>
<path d="M767.86 103.919H152.91V136.729H767.86V103.919Z" fill="white"/>
<path d="M767.86 134.906H152.91V557.783H767.86V134.906Z" fill="#E1E6FB"/>
<path d="M330.193 151.31H254.478V235.156H330.193V151.31Z" fill="#BAC5F4"/>
<path d="M415.141 151.31H339.426V235.156H415.141V151.31Z" fill="#BAC5F4"/>
<path d="M498.242 151.31H422.528V235.156H498.242V151.31Z" fill="#BAC5F4"/>
<path d="M583.19 151.31H507.476V235.156H583.19V151.31Z" fill="white"/>
<path d="M666.291 151.31H590.577V235.156H666.291V151.31Z" fill="white"/>
<path d="M751.239 151.31H675.525V235.156H751.239V151.31Z" fill="white"/>
<path d="M330.193 247.916H254.478V331.762H330.193V247.916Z" fill="white"/>
<path d="M415.141 247.916H339.426V331.762H415.141V247.916Z" fill="white"/>
<path d="M498.242 247.916H422.528V331.762H498.242V247.916Z" fill="#F8F8FF"/>
<path d="M583.19 247.916H507.476V331.762H583.19V247.916Z" fill="white"/>
<path d="M666.291 247.916H590.577V331.762H666.291V247.916Z" fill="white"/>
<path d="M751.239 247.916H675.525V331.762H751.239V247.916Z" fill="white"/>
<path d="M330.193 340.875H254.478V424.722H330.193V340.875Z" fill="white"/>
<path d="M415.141 340.875H339.426V424.722H415.141V340.875Z" fill="white"/>
<path d="M498.242 340.875H422.528V424.722H498.242V340.875Z" fill="#F8F8FF"/>
<path d="M583.19 340.875H507.476V424.722H583.19V340.875Z" fill="white"/>
<path d="M666.291 340.875H590.577V424.722H666.291V340.875Z" fill="#F8F8FF"/>
<path d="M751.239 340.875H675.525V424.722H751.239V340.875Z" fill="white"/>
<path d="M332.04 435.658H256.325V519.504H332.04V435.658Z" fill="#F8F8FF"/>
<path d="M416.988 435.658H341.273V519.504H416.988V435.658Z" fill="#F8F8FF"/>
<path d="M500.089 435.658H424.374V519.504H500.089V435.658Z" fill="white"/>
<path d="M585.037 435.658H509.322V519.504H585.037V435.658Z" fill="white"/>
<path d="M668.138 435.658H592.424V519.504H668.138V435.658Z" fill="#BAC5F4"/>
<path d="M753.086 435.658H677.372V519.504H753.086V435.658Z" fill="white"/>
<path d="M170.454 127.614C174.023 127.614 176.917 124.758 176.917 121.235C176.917 117.711 174.023 114.855 170.454 114.855C166.884 114.855 163.99 117.711 163.99 121.235C163.99 124.758 166.884 127.614 170.454 127.614Z" fill="#BAC5F4"/>
<path d="M190.768 127.614C194.337 127.614 197.231 124.758 197.231 121.235C197.231 117.711 194.337 114.855 190.768 114.855C187.198 114.855 184.304 117.711 184.304 121.235C184.304 124.758 187.198 127.614 190.768 127.614Z" fill="#BAC5F4"/>
<path d="M211.081 127.614C214.651 127.614 217.545 124.758 217.545 121.235C217.545 117.711 214.651 114.855 211.081 114.855C207.511 114.855 204.618 117.711 204.618 121.235C204.618 124.758 207.511 127.614 211.081 127.614Z" fill="#BAC5F4"/>
<path d="M179.687 246.093H231.395C236.011 246.093 239.705 249.739 239.705 254.296C239.705 258.853 236.011 262.498 231.395 262.498H179.687C175.071 262.498 171.377 258.853 171.377 254.296C171.377 249.921 175.071 246.093 179.687 246.093Z" fill="white"/>
<path d="M179.687 340.875H231.395C236.011 340.875 239.705 344.521 239.705 349.078C239.705 353.635 236.011 357.28 231.395 357.28H179.687C175.071 357.28 171.377 353.635 171.377 349.078C171.377 344.703 175.071 340.875 179.687 340.875Z" fill="white"/>
<path d="M179.687 435.658H231.395C236.011 435.658 239.705 439.304 239.705 443.86C239.705 448.417 236.011 452.063 231.395 452.063H179.687C175.071 452.063 171.377 448.417 171.377 443.86C171.377 439.486 175.071 435.658 179.687 435.658Z" fill="white"/>
<path d="M268.329 253.384H297.876C301.384 253.384 304.339 256.301 304.339 259.764C304.339 263.227 301.384 266.144 297.876 266.144H268.329C264.82 266.144 261.865 263.227 261.865 259.764C261.865 256.301 264.82 253.384 268.329 253.384Z" fill="#BAC5F4"/>
<path d="M266.482 277.08H279.409C281.994 277.08 284.025 279.085 284.025 281.636C284.025 284.188 281.994 286.193 279.409 286.193H266.482C263.897 286.193 261.865 284.188 261.865 281.636C261.865 279.267 263.897 277.08 266.482 277.08Z" fill="#BAC5F4"/>
<path d="M354.2 253.384H383.747C386.886 253.384 389.287 255.754 389.287 258.853C389.287 261.951 386.886 264.321 383.747 264.321H354.2C351.061 264.321 348.66 261.951 348.66 258.853C348.66 255.936 351.061 253.384 354.2 253.384Z" fill="#BAC5F4"/>
<path d="M605.35 448.417H634.897C638.037 448.417 640.438 450.787 640.438 453.886C640.438 456.984 638.037 459.354 634.897 459.354H605.35C602.211 459.354 599.81 456.984 599.81 453.886C599.81 450.969 602.211 448.417 605.35 448.417Z" fill="white"/>
<path d="M688.452 349.989H717.999C721.138 349.989 723.539 352.358 723.539 355.457C723.539 358.556 721.138 360.925 717.999 360.925H688.452C685.312 360.925 682.912 358.556 682.912 355.457C682.912 352.541 685.312 349.989 688.452 349.989Z" fill="#F5F5FC"/>
<path d="M686.605 255.207H716.152C719.292 255.207 721.692 257.576 721.692 260.675C721.692 263.773 719.292 266.143 716.152 266.143H686.605C683.466 266.143 681.065 263.773 681.065 260.675C681.065 257.758 683.466 255.207 686.605 255.207Z" fill="#F5F5FC"/>
<path d="M603.504 255.207H633.051C636.19 255.207 638.591 257.576 638.591 260.675C638.591 263.773 636.19 266.143 633.051 266.143H603.504C600.365 266.143 597.964 263.773 597.964 260.675C597.964 257.758 600.365 255.207 603.504 255.207Z" fill="#F5F5FC"/>
<path d="M356.047 286.193C360.126 286.193 363.433 282.929 363.433 278.902C363.433 274.875 360.126 271.611 356.047 271.611C351.967 271.611 348.66 274.875 348.66 278.902C348.66 282.929 351.967 286.193 356.047 286.193Z" fill="#BAC5F4"/>
<path d="M524.096 273.434C528.176 273.434 531.483 270.17 531.483 266.143C531.483 262.117 528.176 258.853 524.096 258.853C520.016 258.853 516.709 262.117 516.709 266.143C516.709 270.17 520.016 273.434 524.096 273.434Z" fill="#BAC5F4"/>
<path d="M549.95 273.434C554.029 273.434 557.336 270.17 557.336 266.143C557.336 262.117 554.029 258.853 549.95 258.853C545.87 258.853 542.563 262.117 542.563 266.143C542.563 270.17 545.87 273.434 549.95 273.434Z" fill="#BAC5F4"/>
<path d="M549.95 364.571C554.029 364.571 557.336 361.306 557.336 357.28C557.336 353.253 554.029 349.989 549.95 349.989C545.87 349.989 542.563 353.253 542.563 357.28C542.563 361.306 545.87 364.571 549.95 364.571Z" fill="#BAC5F4"/>
<path d="M524.096 364.571C528.176 364.571 531.483 361.306 531.483 357.28C531.483 353.253 528.176 349.989 524.096 349.989C520.016 349.989 516.709 353.253 516.709 357.28C516.709 361.306 520.016 364.571 524.096 364.571Z" fill="#BAC5F4"/>
<path d="M548.103 457.531C552.183 457.531 555.49 454.266 555.49 450.24C555.49 446.213 552.183 442.949 548.103 442.949C544.023 442.949 540.716 446.213 540.716 450.24C540.716 454.266 544.023 457.531 548.103 457.531Z" fill="#BAC5F4"/>
<path d="M522.249 457.531C526.329 457.531 529.636 454.266 529.636 450.24C529.636 446.213 526.329 442.949 522.249 442.949C518.169 442.949 514.862 446.213 514.862 450.24C514.862 454.266 518.169 457.531 522.249 457.531Z" fill="#BAC5F4"/>
<path d="M296.952 459.354C301.032 459.354 304.339 456.09 304.339 452.063C304.339 448.036 301.032 444.772 296.952 444.772C292.873 444.772 289.566 448.036 289.566 452.063C289.566 456.09 292.873 459.354 296.952 459.354Z" fill="#BAC5F4"/>
<path d="M271.099 459.354C275.178 459.354 278.486 456.09 278.486 452.063C278.486 448.036 275.178 444.772 271.099 444.772C267.019 444.772 263.712 448.036 263.712 452.063C263.712 456.09 267.019 459.354 271.099 459.354Z" fill="#BAC5F4"/>
<path d="M524.096 175.006C528.176 175.006 531.483 171.742 531.483 167.715C531.483 163.689 528.176 160.424 524.096 160.424C520.016 160.424 516.709 163.689 516.709 167.715C516.709 171.742 520.016 175.006 524.096 175.006Z" fill="#BAC5F4"/>
<path d="M437.301 175.006C441.381 175.006 444.688 171.742 444.688 167.715C444.688 163.689 441.381 160.424 437.301 160.424C433.222 160.424 429.914 163.689 429.914 167.715C429.914 171.742 433.222 175.006 437.301 175.006Z" fill="white"/>
<path d="M463.155 175.006C467.235 175.006 470.542 171.742 470.542 167.715C470.542 163.689 467.235 160.424 463.155 160.424C459.075 160.424 455.768 163.689 455.768 167.715C455.768 171.742 459.075 175.006 463.155 175.006Z" fill="white"/>
<path d="M354.2 175.006C358.28 175.006 361.587 171.742 361.587 167.715C361.587 163.689 358.28 160.424 354.2 160.424C350.12 160.424 346.813 163.689 346.813 167.715C346.813 171.742 350.12 175.006 354.2 175.006Z" fill="white"/>
<path d="M380.054 175.006C384.133 175.006 387.44 171.742 387.44 167.715C387.44 163.689 384.133 160.424 380.054 160.424C375.974 160.424 372.667 163.689 372.667 167.715C372.667 171.742 375.974 175.006 380.054 175.006Z" fill="white"/>
<path d="M271.099 175.006C275.178 175.006 278.486 171.742 278.486 167.715C278.486 163.689 275.178 160.424 271.099 160.424C267.019 160.424 263.712 163.689 263.712 167.715C263.712 171.742 267.019 175.006 271.099 175.006Z" fill="white"/>
<path d="M296.952 175.006C301.032 175.006 304.339 171.742 304.339 167.715C304.339 163.689 301.032 160.424 296.952 160.424C292.873 160.424 289.566 163.689 289.566 167.715C289.566 171.742 292.873 175.006 296.952 175.006Z" fill="white"/>
<path d="M557.895 187.51H559.48V188.695H557.895V191.347H556.435V188.695H551.233V187.84L556.349 179.923H557.895V187.51ZM552.881 187.51H556.435V181.908L556.263 182.222L552.881 187.51Z" fill="#BCC6F0"/>
<path d="M394.896 191.347H387.411V190.304L391.366 185.91C391.951 185.246 392.354 184.707 392.574 184.294C392.799 183.875 392.911 183.444 392.911 182.999C392.911 182.403 392.731 181.914 392.37 181.532C392.009 181.15 391.528 180.959 390.926 180.959C390.204 180.959 389.642 181.166 389.239 181.579C388.842 181.987 388.643 182.557 388.643 183.289H387.191C387.191 182.238 387.529 181.388 388.204 180.739C388.884 180.091 389.791 179.766 390.926 179.766C391.988 179.766 392.827 180.046 393.445 180.606C394.062 181.16 394.371 181.901 394.371 182.826C394.371 183.951 393.654 185.29 392.221 186.844L389.161 190.162H394.896V191.347Z" fill="white"/>
<path d="M308.62 275.158L303.889 285.766H302.366L307.082 275.535H300.899V274.342H308.62V275.158Z" fill="#BCC6F0"/>
<path d="M540.526 285.875H539.067V276.2L536.141 277.275V275.957L540.299 274.396H540.526V285.875ZM551.942 281.002C551.942 282.702 551.652 283.965 551.072 284.792C550.491 285.618 549.583 286.031 548.349 286.031C547.13 286.031 546.228 285.629 545.642 284.823C545.056 284.012 544.753 282.804 544.732 281.198V279.26C544.732 277.581 545.022 276.334 545.603 275.518C546.183 274.702 547.094 274.294 548.333 274.294C549.563 274.294 550.467 274.689 551.048 275.478C551.629 276.263 551.927 277.477 551.942 279.119V281.002ZM550.491 279.017C550.491 277.788 550.318 276.893 549.973 276.334C549.628 275.769 549.081 275.486 548.333 275.486C547.591 275.486 547.049 275.766 546.709 276.326C546.369 276.886 546.194 277.746 546.183 278.907V281.23C546.183 282.464 546.361 283.377 546.717 283.968C547.078 284.554 547.622 284.847 548.349 284.847C549.066 284.847 549.597 284.569 549.942 284.015C550.292 283.461 550.475 282.587 550.491 281.394V279.017Z" fill="#BCC6F0"/>
<path d="M462.319 380.238H460.86V370.564L457.933 371.639V370.321L462.091 368.759H462.319V380.238ZM467.238 374.511L467.819 368.814H473.672V370.156H469.051L468.706 373.271C469.265 372.941 469.901 372.777 470.612 372.777C471.653 372.777 472.48 373.122 473.092 373.812C473.704 374.498 474.01 375.426 474.01 376.598C474.01 377.775 473.691 378.703 473.052 379.383C472.42 380.058 471.533 380.395 470.393 380.395C469.383 380.395 468.559 380.115 467.921 379.556C467.283 378.996 466.919 378.222 466.831 377.233H468.204C468.292 377.887 468.525 378.381 468.902 378.716C469.278 379.046 469.775 379.21 470.393 379.21C471.067 379.21 471.596 378.98 471.978 378.52C472.365 378.06 472.558 377.424 472.558 376.613C472.558 375.85 472.349 375.238 471.93 374.777C471.517 374.312 470.965 374.079 470.275 374.079C469.642 374.079 469.145 374.218 468.784 374.495L468.4 374.809L467.238 374.511Z" fill="#BCC6F0"/>
<path d="M711.623 383.884H710.163V374.21L707.237 375.285V373.967L711.395 372.405H711.623V383.884ZM722.803 375.442C722.803 376.012 722.652 376.519 722.348 376.964C722.05 377.409 721.645 377.757 721.132 378.008C721.729 378.264 722.199 378.638 722.545 379.13C722.895 379.621 723.07 380.178 723.07 380.801C723.07 381.789 722.735 382.577 722.066 383.162C721.402 383.748 720.525 384.041 719.437 384.041C718.339 384.041 717.458 383.748 716.793 383.162C716.134 382.571 715.805 381.784 715.805 380.801C715.805 380.184 715.972 379.626 716.307 379.13C716.647 378.633 717.115 378.256 717.711 378C717.204 377.749 716.804 377.401 716.511 376.956C716.218 376.512 716.072 376.007 716.072 375.442C716.072 374.479 716.38 373.716 716.997 373.151C717.615 372.586 718.428 372.303 719.437 372.303C720.442 372.303 721.253 372.586 721.87 373.151C722.492 373.716 722.803 374.479 722.803 375.442ZM721.619 380.769C721.619 380.131 721.415 379.611 721.007 379.208C720.604 378.805 720.076 378.604 719.422 378.604C718.768 378.604 718.242 378.803 717.845 379.2C717.452 379.598 717.256 380.121 717.256 380.769C717.256 381.418 717.447 381.928 717.829 382.299C718.216 382.671 718.752 382.856 719.437 382.856C720.117 382.856 720.651 382.671 721.038 382.299C721.425 381.923 721.619 381.413 721.619 380.769ZM719.437 373.496C718.867 373.496 718.404 373.674 718.049 374.03C717.698 374.38 717.523 374.859 717.523 375.465C717.523 376.046 717.696 376.517 718.041 376.878C718.391 377.233 718.857 377.411 719.437 377.411C720.018 377.411 720.481 377.233 720.826 376.878C721.177 376.517 721.352 376.046 721.352 375.465C721.352 374.885 721.171 374.411 720.811 374.045C720.45 373.679 719.992 373.496 719.437 373.496Z" fill="#BCC6F0"/>
<path d="M368.544 470.264H361.059V469.221L365.013 464.827C365.599 464.163 366.002 463.624 366.222 463.211C366.446 462.792 366.559 462.361 366.559 461.916C366.559 461.32 366.378 460.831 366.018 460.449C365.657 460.067 365.175 459.876 364.574 459.876C363.852 459.876 363.29 460.083 362.887 460.496C362.489 460.904 362.291 461.474 362.291 462.206H360.839C360.839 461.155 361.177 460.305 361.851 459.656C362.531 459.008 363.439 458.683 364.574 458.683C365.636 458.683 366.475 458.963 367.092 459.523C367.71 460.077 368.018 460.818 368.018 461.743C368.018 462.868 367.302 464.207 365.869 465.761L362.809 469.079H368.544V470.264Z" fill="#BCC6F0"/>
<path d="M389.884 465.392C389.884 467.092 389.594 468.355 389.013 469.181C388.432 470.008 387.525 470.421 386.29 470.421C385.072 470.421 384.169 470.018 383.584 469.213C382.998 468.402 382.694 467.194 382.673 465.588V463.65C382.673 461.971 382.964 460.723 383.544 459.907C384.125 459.091 385.035 458.683 386.275 458.683C387.504 458.683 388.409 459.078 388.989 459.868C389.57 460.653 389.868 461.866 389.884 463.509V465.392ZM388.432 463.407C388.432 462.177 388.26 461.283 387.915 460.723C387.569 460.158 387.023 459.876 386.275 459.876C385.532 459.876 384.991 460.156 384.651 460.716C384.311 461.275 384.135 462.136 384.125 463.297V465.619C384.125 466.854 384.303 467.766 384.658 468.358C385.019 468.943 385.563 469.236 386.29 469.236C387.007 469.236 387.538 468.959 387.883 468.405C388.234 467.85 388.417 466.977 388.432 465.784V463.407Z" fill="#BCC6F0"/>
<path d="M257.248 594.419C254.109 592.414 250.6 590.045 241.736 588.222C234.349 586.946 230.102 575.645 230.102 575.645H213.112C213.112 575.645 211.635 594.419 212.374 595.877C213.112 597.336 213.482 598.976 217.544 600.252C221.423 601.346 255.956 600.981 257.433 600.617C258.726 600.434 262.973 598.065 257.248 594.419Z" fill="#4B49BB"/>
<path d="M59.4674 414.333C57.2513 417.614 47.0945 450.241 47.0945 451.881C46.9099 453.522 47.8332 458.079 53.004 453.886C55.774 451.517 59.2827 448.965 63.5301 440.945C67.0388 434.565 79.227 433.654 79.227 433.654L84.3978 417.796C84.3978 417.796 66.6695 410.687 65.0075 410.87C63.3454 411.052 61.6834 411.052 59.4674 414.333Z" fill="#4B49BB"/>
<path d="M171.377 355.274C171.008 355.457 170.454 358.555 170.269 358.92C167.684 366.94 144.046 438.027 144.046 440.944C144.046 444.042 93.2619 421.258 85.1365 417.795C84.3978 417.43 83.8438 417.795 83.4744 418.341C81.8124 421.805 77.1957 432.012 78.8577 433.288C80.8891 434.746 134.259 472.295 138.691 473.388C143.123 474.482 149.586 479.768 160.482 467.009C169.9 455.89 196.123 413.967 203.325 402.119C203.694 401.572 204.433 401.39 204.987 401.755C205.356 401.937 205.541 402.301 205.726 402.666C207.018 413.967 207.572 457.713 211.45 469.561C215.329 481.226 209.788 493.803 209.788 511.119L212.928 574.551C212.928 575.28 213.482 575.644 214.036 575.644L228.809 576.009C229.548 576.009 229.917 575.644 230.102 574.915C231.025 564.708 240.813 487.97 241.736 476.122C242.844 463.181 249.123 354.728 247.461 348.166C246.168 343.973 179.503 353.999 171.377 355.274Z" fill="url(#paint0_linear)"/>
<path d="M176.917 164.434C176.917 164.434 180.611 149.852 183.565 149.852C186.52 149.852 204.433 152.039 206.649 162.429C208.865 172.818 216.99 178.651 216.99 191.046C216.99 203.623 222.161 209.273 222.161 209.273C222.161 209.273 228.071 190.864 232.503 182.844C236.935 174.824 244.691 169.902 244.691 164.434C244.691 158.966 238.227 97.9037 237.673 96.2633C237.119 94.6228 235.457 84.9623 239.336 79.494C239.336 79.494 251.154 69.8335 252.632 66.0057C253.74 62.7248 257.618 60.902 259.834 64.7298C262.05 68.5576 253.001 78.7649 251.524 82.775C250.231 86.6027 249.308 90.6127 248.754 94.8051C248.754 95.8987 246.538 112.121 246.538 120.141C246.538 128.161 251.524 153.68 251.524 161.882C251.524 169.902 233.426 202.347 231.764 208.362C230.102 214.377 177.471 271.064 176.363 272.705C175.255 274.345 169.9 286.74 169.9 291.115C169.9 295.489 169.9 309.524 172.116 306.79C174.332 304.056 183.381 282.548 185.043 279.814C186.705 277.079 199.632 274.528 205.726 272.887C211.82 271.247 220.869 274.528 219.761 278.355C218.653 282.183 200.924 289.292 195.199 290.568C191.691 291.479 175.994 308.431 174.886 313.352C173.778 318.273 159.558 311.165 159.558 304.238C159.558 297.312 161.22 261.586 163.436 256.665C165.652 251.743 175.625 230.782 180.98 219.845C186.52 208.909 174.517 203.623 172.3 195.967C169.53 188.494 176.917 164.434 176.917 164.434Z" fill="url(#paint1_linear)"/>
<path d="M224.008 199.066C224.008 199.066 238.227 173.73 239.705 167.351C241.182 160.971 237.489 96.0814 237.489 96.0814L248.569 94.4409C248.569 94.4409 259.095 154.591 260.572 161.7C262.05 168.627 256.879 183.755 251.893 192.322C246.907 200.889 233.426 236.433 233.426 240.625C233.426 244.817 234.349 284.735 236.565 292.573C238.781 300.411 247.646 348.532 247.646 348.532L171.377 355.64C171.377 355.64 174.701 334.679 174.516 327.57C173.962 312.259 169.715 300.776 180.98 293.485C188.551 288.746 195.753 290.933 204.064 287.105C213.482 282.548 215.698 278.72 216.252 276.169C216.621 274.71 214.22 271.247 199.447 276.533C194.461 278.356 184.673 278.174 184.304 284.553C184.119 289.839 191.137 301.322 182.827 306.426C182.827 306.426 173.408 328.481 164.544 331.945C156.973 334.861 147.924 326.841 148.109 316.451C148.293 303.874 149.032 279.996 154.942 269.607C160.666 259.217 176.548 232.423 179.318 230.235C182.088 228.048 190.767 238.255 200.74 236.98C210.712 235.521 214.959 230.965 217.175 226.043C219.206 220.939 224.008 199.066 224.008 199.066Z" fill="url(#paint2_linear)"/>
<path d="M192.06 152.95C196.492 160.059 202.402 166.256 209.05 171.177C220.684 179.927 209.234 204.534 208.68 216.746C208.311 226.589 214.22 240.077 228.44 249.191C238.782 255.935 231.579 270.881 231.579 278.537C231.579 286.01 248.2 267.965 248.754 259.216C249.492 248.644 246.722 240.988 239.151 232.422C232.133 224.401 223.823 194.144 221.423 179.744C221.238 178.286 221.053 176.828 221.238 175.37C221.423 170.266 220.869 154.226 206.095 145.294C188.551 134.54 177.656 144.383 170.638 150.398C161.959 157.689 158.45 177.739 160.666 208.908C162.882 240.077 157.342 257.94 153.649 266.871C145.154 287.468 168.238 273.069 172.485 261.221C178.025 246.092 181.719 244.816 189.475 232.968C192.614 228.412 188.551 212.554 185.043 205.992C178.579 193.233 174.886 187.947 174.886 179.38C174.886 170.813 185.597 156.231 192.06 152.95Z" fill="url(#paint3_linear)"/>
<path opacity="0.07" d="M195.569 208.727C195.569 208.727 207.942 209.456 211.266 201.801C211.635 200.889 209.234 225.496 208.68 222.215C207.757 218.934 195.569 208.727 195.569 208.727Z" fill="black"/>
<path opacity="0.07" d="M173.778 265.596C173.778 265.596 171.008 283.095 169.346 290.933C168.422 295.307 167.868 299.499 167.868 303.874C167.868 303.874 178.395 290.933 181.719 285.829C183.75 282.548 177.471 284.188 176.917 272.341C176.363 260.493 176.548 253.02 176.548 253.02L173.778 265.596Z" fill="black"/>
<path opacity="0.07" d="M174.701 321.554C174.701 321.554 184.119 312.441 184.489 307.701C185.043 301.504 189.475 301.869 189.475 305.696C189.475 309.524 182.457 338.506 186.705 346.161C190.952 353.817 194.276 353.635 194.276 353.635L171.377 355.275L174.701 321.554Z" fill="black"/>
<path opacity="0.07" d="M194.276 353.635C194.276 353.635 195.569 376.601 187.259 384.257C170.269 399.932 180.241 420.347 172.67 429.279C166.391 436.752 164.729 458.078 149.586 462.817C143.677 464.822 122.07 451.698 117.638 450.24C108.405 447.142 101.757 429.643 72.9483 420.529C66.1155 418.342 90.6766 420.712 90.6766 420.712L144.046 442.585L171.562 355.458L194.276 353.635Z" fill="black"/>
<path d="M684.02 559.604H681.434L667.584 559.787C667.584 559.787 664.63 573.822 662.967 579.655C662.967 580.019 662.598 580.931 662.413 581.66C662.229 582.753 662.044 583.665 662.044 584.758C662.413 590.044 664.26 594.601 669.246 596.971C674.602 599.523 678.664 602.074 684.205 596.971C689.745 591.867 690.668 588.768 688.452 579.837C686.051 571.088 685.313 559.787 684.02 559.604Z" fill="#4B44BE"/>
<path d="M742.191 577.103C732.588 574.186 726.124 561.245 726.124 561.245L709.689 560.333C709.689 560.333 708.765 573.457 708.396 580.019C707.842 588.768 709.319 592.778 715.229 592.232C722.985 591.685 754.379 594.419 759.365 591.32C765.828 587.128 751.055 579.837 742.191 577.103Z" fill="#4B44BE"/>
<path d="M644.131 327.752V347.073L667.769 559.787H684.574C684.574 559.787 690.298 413.968 690.298 408.864C690.298 403.76 691.776 387.903 691.776 387.903C691.776 387.903 712.828 447.871 713.198 452.792C713.567 457.714 709.689 561.063 709.689 561.063L726.494 561.792C726.494 561.792 741.083 491.981 741.083 485.419C741.083 478.857 746.069 444.408 745.33 437.846C744.591 431.284 732.218 328.481 732.218 328.481L706.549 327.752H644.131Z" fill="url(#paint4_linear)"/>
<path d="M752.532 305.332L752.348 304.968C752.348 305.332 752.348 305.514 752.532 305.332ZM703.41 286.74L693.992 290.568L693.438 303.327L703.779 307.337C703.779 307.337 715.044 306.973 715.044 306.79C715.044 306.243 719.476 306.426 721.508 307.702L756.595 295.854L757.888 287.651C757.888 287.651 760.473 298.041 748.839 277.08L703.41 286.74ZM745.145 244.635L744.407 240.442L742.56 240.078L745.145 244.635ZM680.511 133.447C676.264 135.27 674.048 141.467 674.048 141.467C674.048 141.467 672.016 140.191 672.016 143.655C672.016 147.118 673.863 155.138 674.971 157.143C677.187 160.606 679.218 164.069 681.065 167.715C682.727 171.36 682.173 178.834 680.326 179.927C678.48 181.021 646.717 209.273 646.717 209.273L620.493 288.927V292.026L624.556 293.484L628.804 296.947C629.173 296.947 634.528 299.864 635.267 300.411C639.514 302.416 643.947 304.056 648.379 304.968C651.333 305.514 664.445 305.332 664.445 305.332L677.741 304.968L675.525 288.198L655.765 288.016L628.804 286.74L656.135 224.767L742.191 239.896C726.863 212.554 709.689 181.932 708.212 178.651C706.919 176.1 708.212 169.72 708.95 166.439C709.689 163.523 711.166 159.695 712.459 158.601C713.936 157.508 716.337 152.586 716.337 150.581C716.337 148.576 716.891 140.191 715.229 142.014C714.675 142.561 712.644 139.462 711.905 136.181C710.797 131.625 707.473 128.344 703.779 125.427C703.779 125.427 684.758 131.625 680.511 133.265" fill="url(#paint5_linear)"/>
<path d="M647.455 192.322C643.208 195.056 639.514 198.883 638.037 203.623C636.56 208.544 626.588 246.093 625.295 251.014C621.971 262.68 620.124 265.96 616.246 279.813C611.445 296.765 622.34 299.317 633.605 301.686C645.239 304.238 645.239 305.332 648.009 305.332C648.379 305.332 662.229 308.066 662.598 300.41C662.967 295.489 662.044 287.833 660.197 288.016C655.95 288.563 642.284 285.099 641.546 284.553C640.622 284.006 644.5 273.434 646.717 266.872C648.379 261.95 654.657 241.9 656.135 238.255C656.873 236.25 652.626 257.758 650.041 278.902C650.041 279.631 648.933 287.833 649.302 287.833C652.441 287.833 660.936 288.016 663.706 288.198C675.71 289.656 678.11 295.307 677.372 299.864C676.079 307.701 646.716 304.056 646.901 305.15C646.901 305.15 641.915 327.569 644.685 329.028C647.086 330.303 679.957 343.792 686.974 346.344C687.713 346.708 688.636 346.344 688.821 345.432L693.253 332.855C693.253 332.673 693.438 332.673 693.623 332.673C693.623 332.673 693.807 332.673 693.807 332.855L698.055 346.708C698.055 347.073 698.424 347.437 698.793 347.437H700.64L737.205 339.599C737.205 339.599 737.02 325.382 737.02 307.155C737.02 305.332 736.651 298.588 735.358 299.864C734.065 301.139 703.595 305.15 700.271 303.691C693.253 300.775 695.1 293.484 697.501 290.568C700.271 287.104 736.281 285.464 736.466 282.912C737.02 271.793 736.097 242.447 735.543 246.093C734.619 251.561 713.567 281.636 713.567 286.922C713.567 292.208 713.198 305.332 713.198 305.332L747.731 302.78C747.731 302.78 759.365 298.77 760.288 292.208C761.396 285.646 760.104 282.73 759.55 272.887C759.18 266.69 750.316 229.141 747.731 218.569C747.361 216.929 747.177 215.288 746.992 213.648C746.623 209.273 744.961 199.066 735.358 194.509C723.539 188.858 714.121 184.484 711.72 184.484C709.504 184.484 703.41 197.608 700.271 201.435C698.793 203.076 699.163 203.987 697.316 206.357C696.393 207.633 694.546 207.815 693.253 207.086C692.884 206.904 692.699 206.539 692.515 206.357C691.407 204.898 690.668 203.258 689.744 201.618C688.267 198.883 677.372 182.843 677.372 182.843C677.372 182.843 651.703 189.405 647.455 192.322Z" fill="url(#paint6_linear)"/>
<path d="M703.779 125.609C703.779 125.609 680.511 134.176 678.849 135.452C677.187 136.728 674.048 141.467 674.048 141.467C674.048 141.467 672.386 140.556 672.016 142.925C672.016 142.925 669.616 138.004 669.431 135.452C669.062 132.718 669.431 125.791 673.863 121.235C678.295 116.678 687.344 110.48 692.884 111.392C698.424 112.121 700.825 112.85 704.333 116.313C707.842 119.776 710.797 120.87 711.905 121.235C713.013 121.781 716.891 124.698 717.63 129.984C718.368 135.27 716.522 146.024 716.522 146.024C716.522 146.024 717.076 141.832 715.414 143.108C714.306 144.019 712.459 140.191 711.905 137.822C710.982 135.634 705.072 126.338 703.779 125.609Z" fill="url(#paint7_linear)"/>
<path d="M669.985 273.616L709.319 278.538C710.058 278.72 710.612 279.449 710.612 280.36L709.504 315.357C709.504 316.451 708.765 317.909 707.657 317.544L668.508 310.071C667.769 309.889 667.215 309.16 667.215 308.431L667.03 304.603L671.278 303.509C672.386 303.145 673.494 302.598 674.232 302.051C674.417 301.869 674.602 301.686 674.786 301.504L675.71 300.228C676.079 299.864 676.079 299.317 676.079 298.77C675.894 298.041 675.71 296.947 675.525 296.218C675.525 296.036 675.34 295.854 675.34 295.671L674.417 293.666C674.048 292.755 673.309 292.026 672.201 291.479L671.647 291.115L667.4 288.927L667.769 275.257C667.769 274.345 668.508 273.616 669.616 273.616C669.985 273.616 669.985 273.616 669.985 273.616Z" fill="white"/>
<path d="M251.339 55.9089C258.784 55.9089 264.82 49.9516 264.82 42.6029C264.82 35.2542 258.784 29.2969 251.339 29.2969C243.894 29.2969 237.858 35.2542 237.858 42.6029C237.858 49.9516 243.894 55.9089 251.339 55.9089Z" fill="url(#paint8_linear)"/>
<path d="M267.036 27.2918C271.932 27.2918 275.9 23.3747 275.9 18.5426C275.9 13.7106 271.932 9.79346 267.036 9.79346C262.14 9.79346 258.172 13.7106 258.172 18.5426C258.172 23.3747 262.14 27.2918 267.036 27.2918Z" fill="url(#paint9_linear)"/>
<path d="M235.273 30.3908C238.74 30.3908 241.551 27.6161 241.551 24.1934C241.551 20.7707 238.74 17.9961 235.273 17.9961C231.805 17.9961 228.994 20.7707 228.994 24.1934C228.994 27.6161 231.805 30.3908 235.273 30.3908Z" fill="url(#paint10_linear)"/>
<defs>
<linearGradient id="paint0_linear" x1="78.5733" y1="461.538" x2="247.553" y2="461.538" gradientUnits="userSpaceOnUse">
<stop stop-color="#E5A4ED"/>
<stop offset="1" stop-color="#7A5BF5"/>
</linearGradient>
<linearGradient id="paint1_linear" x1="158.978" y1="188.851" x2="259.758" y2="188.851" gradientUnits="userSpaceOnUse">
<stop offset="0.11" stop-color="#F87B58"/>
<stop offset="0.5" stop-color="#F8C548"/>
<stop offset="1" stop-color="#F89C51"/>
</linearGradient>
<linearGradient id="paint2_linear" x1="159.126" y1="279.505" x2="315.407" y2="169.303" gradientUnits="userSpaceOnUse">
<stop stop-color="#4B45BD"/>
<stop offset="1" stop-color="#58CAEA"/>
</linearGradient>
<linearGradient id="paint3_linear" x1="151.987" y1="210.635" x2="248.873" y2="210.635" gradientUnits="userSpaceOnUse">
<stop stop-color="#E5A4ED"/>
<stop offset="1" stop-color="#7A5BF5"/>
</linearGradient>
<linearGradient id="paint4_linear" x1="644.044" y1="444.648" x2="745.332" y2="444.648" gradientUnits="userSpaceOnUse">
<stop stop-color="#E5A4ED"/>
<stop offset="1" stop-color="#7A5BF5"/>
</linearGradient>
<linearGradient id="paint5_linear" x1="620.561" y1="216.645" x2="758.06" y2="216.645" gradientUnits="userSpaceOnUse">
<stop stop-color="#F87B58"/>
<stop offset="0.41" stop-color="#F89453"/>
<stop offset="0.71" stop-color="#F8C548"/>
<stop offset="1" stop-color="#F89C51"/>
</linearGradient>
<linearGradient id="paint6_linear" x1="615.108" y1="265.091" x2="760.445" y2="265.091" gradientUnits="userSpaceOnUse">
<stop stop-color="#4B45BD"/>
<stop offset="1" stop-color="#58CAEA"/>
</linearGradient>
<linearGradient id="paint7_linear" x1="669.301" y1="128.554" x2="717.683" y2="128.554" gradientUnits="userSpaceOnUse">
<stop stop-color="#E5A4ED"/>
<stop offset="1" stop-color="#7A5BF5"/>
</linearGradient>
<linearGradient id="paint8_linear" x1="233.844" y1="68.3576" x2="258.936" y2="30.4911" gradientUnits="userSpaceOnUse">
<stop stop-color="#4B45BD"/>
<stop offset="1" stop-color="#58CAEA"/>
</linearGradient>
<linearGradient id="paint9_linear" x1="239.306" y1="42.698" x2="263.129" y2="42.698" gradientUnits="userSpaceOnUse">
<stop stop-color="#4B45BD"/>
<stop offset="1" stop-color="#58CAEA"/>
</linearGradient>
<linearGradient id="paint10_linear" x1="227.075" y1="36.3641" x2="238.899" y2="18.524" gradientUnits="userSpaceOnUse">
<stop stop-color="#4B45BD"/>
<stop offset="1" stop-color="#58CAEA"/>
</linearGradient>
</defs>
</svg>
