<svg width="1110" height="5824" viewBox="0 0 1110 5824" fill="none" xmlns="http://www.w3.org/2000/svg">
<path opacity="0.25" fill-rule="evenodd" clip-rule="evenodd" d="M65.0004 0.00207198H6.10352e-05V5824H65.0004V0.00207198ZM159.999 0.00207198H95.0002V5824H159.999V0.00207198ZM190 0.00207198H254.999V5824H190V0.00207198ZM350 0.00207198H285V5824H350V0.00207198ZM380.001 0.00207198H445V5824H380.001V0.00207198ZM540 0.00207198H475V5824H540V0.00207198ZM570 0.00207198H635V5824H570V0.00207198ZM730 0.00207198H665V5824H730V0.00207198ZM760 0.00207198H825V5824H760V0.00207198ZM920 0.00207198H855V5824H920V0.00207198ZM950 0.00207198H1015V5824H950V0.00207198ZM1110 0.00207198H1045V5824H1110V0.00207198Z" fill="#FF0000"/>
</svg>
