<svg width="221" height="74" viewBox="0 0 221 74" fill="none" xmlns="http://www.w3.org/2000/svg">
<g clip-path="url(#clip0)">
<path d="M2 1.57777H20.32C21.1467 1.57777 21.56 1.9911 21.56 2.81777V8.25777H19.48L19.16 3.77777H12.76V28.4178L16.36 28.6978V30.7778H5.96V28.6978L9.56 28.4178V3.77777H3.16L2.84 8.25777H0.76V2.81777C0.76 1.9911 1.17333 1.57777 2 1.57777ZM23.9784 30.7778H20.8584V28.6978L22.7784 28.4178L31.6184 1.57777H35.8584L44.7384 28.4178L46.6584 28.6978V30.7778H43.5384C42.8184 30.7778 42.3384 30.4311 42.0984 29.7378L39.4984 21.8178H28.0184L25.4184 29.7378C25.1784 30.4311 24.6984 30.7778 23.9784 30.7778ZM33.8584 4.57777H33.6584L28.8184 19.3378H38.6984L33.8584 4.57777ZM55.2016 28.6178H64.3616L64.6816 23.9778H66.7616V29.5378C66.7616 30.3644 66.3482 30.7778 65.5216 30.7778H49.5216V28.6978L52.0016 28.4178V3.97777L49.5216 3.65777V1.57777H58.4816V3.65777L55.2016 3.97777V28.6178ZM70.0684 1.57777H87.7084C88.5084 1.57777 88.9084 1.9911 88.9084 2.81777V8.13777H86.8284L86.5484 3.77777H75.7484V14.8578H87.1084V17.0578H75.7484V28.6178H86.9084L87.2284 24.3778H89.3084V29.5378C89.3084 30.3644 88.8951 30.7778 88.0684 30.7778H70.0684V28.6978L72.5484 28.4178V3.97777L70.0684 3.65777V1.57777ZM118.947 30.7778H116.307C115.613 30.7778 115.12 30.5111 114.827 29.9778L100.827 6.65777V29.5378C100.827 30.3644 100.413 30.7778 99.5866 30.7778H95.1466V28.6978L97.6266 28.4178V3.97777L95.1466 3.65777V1.57777H100.267C100.907 1.57777 101.4 1.84444 101.747 2.37777L115.747 25.7378V2.81777C115.747 1.9911 116.147 1.57777 116.947 1.57777H121.427V3.65777L118.947 3.97777V30.7778ZM125.945 1.57777H144.265C145.092 1.57777 145.505 1.9911 145.505 2.81777V8.25777H143.425L143.105 3.77777H136.705V28.4178L140.305 28.6978V30.7778H129.905V28.6978L133.505 28.4178V3.77777H127.105L126.785 8.25777H124.705V2.81777C124.705 1.9911 125.119 1.57777 125.945 1.57777Z" fill="white"/>
<path d="M88.8834 45.76C88.9315 45.62 89.0759 45.515 88.9796 45.41C89.1241 45.305 89.0278 45.13 89.0278 45.025C88.9796 44.43 89.2203 43.835 89.1722 43.24C89.1722 43.205 89.1241 43.17 89.1722 43.135C89.3166 43.03 89.2203 42.855 89.2685 42.715C89.3166 42.575 89.3647 42.435 89.3647 42.26C89.4129 42.015 89.3647 41.77 89.461 41.525C89.5573 41.28 89.461 41 89.5091 40.72C89.5091 40.44 89.6054 40.195 89.6054 39.915C89.6054 38.9 89.6054 37.885 89.6054 36.87C89.5573 35.855 89.7017 34.84 89.461 33.825C89.5091 32.46 89.4129 31.095 89.6054 29.765C89.6535 29.275 89.6054 28.785 89.6054 28.295C89.6054 27.595 89.6054 26.86 89.6054 26.16C89.5573 25.425 89.5091 24.725 89.5091 23.99C89.461 23.955 89.5091 23.885 89.461 23.885C89.3166 23.675 89.3647 23.43 89.3647 23.22C89.3647 22.975 89.2203 22.765 89.2685 22.52C89.2685 22.415 89.2203 22.31 89.1722 22.205C89.2203 22.17 89.2685 22.1 89.3166 22.065C89.6535 22.03 89.9905 22.03 90.3274 21.96C90.6163 21.89 90.9532 21.925 91.1939 21.855C91.3864 21.785 91.6271 21.855 91.7715 21.785C92.0122 21.68 92.2047 21.68 92.3973 21.68C92.4935 21.68 92.5898 21.715 92.6379 21.68C92.9268 21.54 93.3118 21.575 93.6488 21.505C93.9857 21.47 96.1037 21.19 96.4407 21.085C96.6813 21.015 96.8739 21.05 97.1145 21.015C97.3071 20.945 97.5478 20.91 97.7884 20.91C98.0291 20.945 98.2698 20.84 98.5586 20.805C98.7512 20.77 99.04 20.735 99.1362 20.49C98.9918 20.385 98.8474 20.28 98.703 20.21C98.3179 20.035 97.8847 19.93 97.4996 19.72C97.0664 19.51 96.6332 19.58 96.1518 19.545C95.9593 19.755 93.8895 19.895 93.6007 20.035C93.36 20.14 93.023 20.07 92.7342 20.14C92.5417 20.21 92.301 20.175 92.0603 20.245C91.6752 20.35 91.2902 20.385 90.8569 20.49C90.6163 20.56 90.2793 20.56 90.0386 20.665C89.7498 20.735 89.461 20.805 89.1722 20.84C88.739 20.945 88.3539 21.155 87.8725 21.155C87.7763 21.33 87.5356 21.155 87.3912 21.26C87.2468 21.4 87.0542 21.26 86.9098 21.33C86.5247 21.47 86.0915 21.505 85.7064 21.575C85.2732 21.645 84.8881 21.75 84.4549 21.785C84.0698 21.855 83.6847 21.995 83.2997 22.065C82.8664 22.135 82.4332 22.205 82 22.275C82 22.345 82 22.415 82 22.52C82.1925 22.555 82.3851 22.555 82.5295 22.59C82.722 22.625 82.9146 22.695 83.1071 22.695C83.5403 22.695 83.9736 22.765 84.3586 22.66C84.7437 22.59 85.1769 22.695 85.562 22.52C86.0915 22.52 86.621 22.415 87.1505 22.345C87.1024 22.485 87.1024 22.625 87.0542 22.765C86.958 23.01 86.9098 23.22 86.958 23.465C86.7654 23.57 86.8617 23.745 86.8617 23.885C86.8136 24.025 86.7654 24.2 86.7173 24.34C86.6691 24.76 86.6691 25.145 86.621 25.53C86.621 25.565 86.621 25.6 86.621 25.635C86.4285 25.81 86.4766 26.02 86.5247 26.23C86.5729 26.44 86.3803 26.615 86.3803 26.825C86.3803 27.14 86.3803 27.455 86.2841 27.735C86.1878 28.12 86.2841 28.505 86.1878 28.89C86.0915 29.345 86.1878 29.8 86.0915 30.255C85.9952 30.745 86.0434 31.2 86.0915 31.69C86.1397 32.18 85.9471 32.635 85.9471 33.09C85.9471 34.035 85.9471 34.945 85.9471 35.89C85.9952 36.8 85.899 37.71 86.0434 38.62C86.1878 39.215 85.9471 39.845 86.1878 40.44C86.2359 40.72 86.0915 41 86.2359 41.28C86.3803 41.56 86.2841 41.875 86.3803 42.155C86.4766 42.435 86.4285 42.75 86.4766 43.065C86.5729 43.59 86.5729 44.115 86.621 44.64C86.621 44.85 86.7173 45.025 86.8136 45.2C86.9098 45.445 87.2949 45.34 87.4393 45.55H87.4874C87.4874 45.515 87.5356 45.515 87.5356 45.48C87.7763 45.515 88.0169 45.55 88.2576 45.585C88.3058 45.62 88.3539 45.69 88.3539 45.69C88.5946 45.725 88.739 45.725 88.8834 45.76ZM89.0278 35.19C89.0278 36.87 89.0278 38.515 89.0278 40.23C88.8834 39.915 88.8834 36.1 89.0278 35.19ZM89.0278 28.82C89.0278 29.45 89.0278 30.08 89.0278 30.745C88.9315 30.43 88.8834 29.555 89.0278 28.82ZM88.8352 41.91C88.8352 41.7 88.8352 41.49 88.8352 41.28C88.8834 41.315 88.9315 41.315 88.9315 41.315C88.9315 41.525 88.9315 41.7 88.9315 41.91C88.8834 41.91 88.8834 41.91 88.8352 41.91ZM88.739 42.925C88.739 42.785 88.739 42.68 88.739 42.575H88.7871C88.7871 42.68 88.8352 42.785 88.8352 42.89C88.7871 42.89 88.7871 42.89 88.739 42.925ZM88.6908 43.87C88.6908 43.975 88.6908 44.08 88.6908 44.185H88.6427C88.5946 44.08 88.5946 43.975 88.5946 43.835C88.6427 43.835 88.6427 43.87 88.6908 43.87ZM89.0278 23.36C89.0278 23.43 89.0278 23.5 89.0278 23.605H88.9796C88.9315 23.5 88.9315 23.43 88.9315 23.36C88.9796 23.36 88.9796 23.36 89.0278 23.36ZM99.6984 31.76C99.6984 31.585 99.6503 31.445 99.6984 31.375C99.9873 31.095 99.7466 30.78 99.9391 30.535C100.084 30.325 99.9873 30.08 100.084 29.835C100.132 29.625 100.132 29.345 100.18 29.135C100.228 28.855 100.276 28.575 100.324 28.33C100.324 28.05 100.276 27.77 100.469 27.525C100.42 26.86 100.661 26.195 100.565 25.53C100.565 25.215 100.565 24.935 100.565 24.655C100.661 24.585 100.709 24.55 100.709 24.55C101.143 24.48 101.528 24.445 101.961 24.375C102.298 24.375 102.731 24.235 103.164 24.305C103.357 24.13 103.694 24.27 103.983 24.2C104.464 24.06 104.993 24.025 105.427 23.92C105.764 23.85 106.052 23.78 106.341 23.745C107.063 23.605 107.737 23.29 108.459 23.22C108.604 23.185 108.844 23.185 108.844 22.975C108.652 22.905 108.363 22.87 108.218 22.765C107.833 22.45 107.4 22.52 106.919 22.52C106.774 22.73 106.534 22.59 106.245 22.59C106.052 22.625 105.812 22.73 105.619 22.73C105.186 22.73 104.801 22.8 104.464 22.835C104.223 23.01 103.838 22.8 103.694 23.01C103.116 23.01 102.538 23.29 101.961 23.22C101.913 23.22 101.768 23.22 101.768 23.22C101.528 23.395 101.191 23.29 100.902 23.325C100.613 23.36 100.276 23.395 99.9873 23.395C99.7466 23.43 99.6022 23.395 99.4096 23.395C99.0245 24.06 98.8801 24.76 98.6395 25.425C98.4469 26.09 98.1581 26.825 98.0137 27.525C97.9174 27.945 97.773 28.33 97.6286 28.715C97.4842 29.065 97.4361 29.485 97.2435 29.87C97.1473 30.22 97.0991 30.57 97.0029 30.92C96.9066 31.305 96.8103 31.62 96.6659 32.005C96.6178 32.425 96.5215 32.845 96.4252 33.23C96.1846 33.895 96.1364 34.525 95.9439 35.19C95.8957 35.365 95.8957 35.575 95.8476 35.785C95.7995 35.995 95.8957 36.24 95.7032 36.45C95.7995 36.905 95.5588 37.325 95.5588 37.78C95.6069 38.13 95.6069 38.445 95.5588 38.795C95.5107 39.25 95.6069 39.67 95.7032 40.055C95.8476 40.405 95.9439 40.79 96.329 41.035C96.8103 41.35 97.2435 41.595 97.8693 41.665C98.0618 41.7 98.2544 41.77 98.4951 41.805C99.1208 41.945 99.6984 42.12 100.324 42.085C100.565 42.05 100.757 42.015 100.998 41.98C101.191 41.98 101.479 41.98 101.672 41.98H101.72C101.913 41.77 102.201 41.98 102.298 41.84C102.538 41.7 102.731 41.84 102.972 41.7C103.068 41.63 103.309 41.63 103.549 41.595C104.512 41.455 105.33 41.175 106.197 40.86C106.726 40.72 107.256 40.545 107.737 40.37C108.267 40.16 108.844 40.02 109.229 39.635C109.085 39.6 108.94 39.46 108.796 39.565C108.555 39.46 108.267 39.285 107.978 39.145C107.641 38.97 107.208 38.795 106.726 38.9C105.667 39.145 104.656 39.425 103.597 39.6C103.164 39.67 102.731 39.845 102.298 39.915C101.913 39.985 101.479 40.23 101.046 40.16C100.18 40.475 99.2652 40.65 98.4469 40.79C98.3988 40.58 98.2544 40.44 98.2544 40.265C98.1581 39.565 98.3507 38.9 98.3988 38.235C98.5432 37.99 98.3988 37.71 98.5432 37.465C98.6395 37.29 98.5432 37.08 98.6395 36.94C98.7357 36.73 98.7357 36.555 98.7357 36.38C98.7357 36.275 98.6876 36.205 98.7357 36.17C98.9764 36.03 98.7839 35.82 98.8801 35.68C98.9283 35.47 98.9764 35.33 99.0245 35.155C99.0245 34.91 99.169 34.63 99.1208 34.42C99.4096 34.175 99.0727 33.86 99.3615 33.65C99.2652 33.335 99.4578 33.125 99.5059 32.845C99.5059 32.67 99.6022 32.495 99.6022 32.39C99.7947 32.32 99.9391 32.285 99.9873 32.285C100.228 32.285 100.517 32.39 100.613 32.32C100.95 32.215 101.191 32.215 101.528 32.145C102.298 31.9 103.164 31.62 103.983 31.375C104.608 31.13 105.234 30.885 105.908 30.745C106.1 30.71 106.245 30.605 106.437 30.535C106.149 30.43 105.86 30.29 105.523 30.185C105.33 30.185 105.09 30.15 104.801 30.22C104.127 30.43 103.453 30.57 102.779 30.745C101.72 31.025 100.709 31.375 99.6984 31.76ZM100.469 24.62C100.469 24.865 100.469 25.04 100.469 25.32C100.42 25.285 100.324 25.285 100.324 25.215C100.324 25.04 100.324 24.795 100.324 24.62C100.324 24.62 100.42 24.62 100.469 24.62ZM100.228 26.265C100.228 26.16 100.228 26.02 100.228 25.915H100.276C100.276 26.02 100.324 26.16 100.324 26.265C100.276 26.265 100.228 26.265 100.228 26.265ZM100.084 27.07C100.084 27 100.084 26.895 100.084 26.79C100.132 26.79 100.132 26.79 100.18 26.79C100.18 26.86 100.18 27 100.18 27.07C100.18 27.07 100.132 27.07 100.084 27.07ZM97.8693 38.9C97.8693 39.005 97.8693 39.075 97.8693 39.18C97.8693 39.18 97.8693 39.18 97.773 39.18C97.773 39.11 97.773 39.005 97.7249 38.9C97.773 38.9 97.8693 38.9 97.8693 38.9ZM98.0618 37.5C98.0618 37.43 98.0618 37.395 98.0618 37.325C98.0618 37.325 98.0618 37.325 98.11 37.325C98.11 37.395 98.11 37.43 98.11 37.5C98.0618 37.5 98.0618 37.5 98.0618 37.5ZM98.0137 38.025C98.0137 38.095 98.0137 38.13 98.0137 38.2C97.9656 38.2 97.9656 38.2 97.9656 38.2C97.9174 38.165 97.9174 38.095 97.9174 38.025C97.9174 38.025 97.9656 38.025 98.0137 38.025ZM112.936 33.405C112.791 33.685 112.695 33.895 112.647 34.14C112.502 34.49 112.454 34.875 112.262 35.225C112.117 35.61 112.117 36.03 111.877 36.38C111.732 37.15 111.395 37.885 111.299 38.655C111.107 38.83 111.251 39.075 111.155 39.285C110.962 39.775 110.914 40.3 110.866 40.825C110.866 41.035 110.962 41.28 111.058 41.595C111.058 41.35 111.107 41.21 111.107 41.035C111.155 41.035 111.155 41.035 111.203 41.07C111.203 41.665 111.203 42.26 111.203 42.82C111.299 42.89 111.347 42.925 111.492 42.995C111.54 42.75 111.54 42.505 111.684 42.365C111.829 42.19 111.925 41.98 112.021 41.735C112.069 41.84 112.117 41.91 112.166 42.015C112.214 41.56 112.214 41.21 112.31 40.86C112.358 40.58 112.358 40.335 112.406 40.125C112.454 39.95 112.502 39.845 112.502 39.67C112.551 39.53 112.599 39.425 112.647 39.25C112.695 39.04 112.647 38.76 112.743 38.55C112.936 38.13 113.032 37.71 113.176 37.325C113.417 36.485 113.658 35.68 113.947 34.875C114.139 34.385 114.284 33.895 114.524 33.405C114.572 33.23 114.62 32.985 115.006 33.02C115.391 32.845 115.872 32.845 116.353 32.74C116.594 32.705 116.883 32.705 117.123 32.635C117.509 32.495 117.894 32.46 118.327 32.39C118.76 32.32 119.241 32.215 119.723 32.18C119.915 32.18 120.108 32.11 120.349 32.04C120.397 32.11 120.445 32.215 120.445 32.32C120.493 33.475 120.349 34.63 120.589 35.785C120.493 36.415 120.686 37.01 120.686 37.605C120.686 37.64 120.637 37.675 120.686 37.71C120.878 37.885 120.734 38.06 120.782 38.27C120.83 38.445 120.878 38.655 120.878 38.865C120.926 39.32 120.782 39.74 121.022 40.195C120.926 40.79 121.167 41.35 121.119 41.945C121.119 42.225 121.263 42.505 121.408 42.785C121.504 42.75 121.552 42.715 121.6 42.715C121.696 42.785 121.745 42.89 121.793 42.96C121.937 42.89 122.081 42.855 122.226 42.785C122.226 42.855 122.226 42.89 122.226 42.925C122.322 42.96 122.418 42.96 122.611 42.96C122.611 42.995 122.659 43.065 122.707 43.17C122.755 43.065 122.803 42.995 122.803 42.96C122.852 43.03 122.9 43.1 122.996 43.205C123.092 43.065 123.14 42.995 123.237 42.89C123.237 42.785 123.189 42.645 123.237 42.505C123.237 42.4 123.285 42.26 123.333 42.12C123.333 41.805 123.333 41.49 123.429 41.175C123.526 40.79 123.477 40.405 123.526 40.02C123.574 39.46 123.622 38.9 123.766 38.375C123.862 37.955 123.862 37.5 123.959 37.08C124.055 36.8 123.959 36.485 124.007 36.205C124.007 35.925 124.103 35.645 124.103 35.4C124.103 34.385 124.103 33.335 124.103 32.32C124.055 31.34 124.151 30.325 124.007 29.31C123.862 28.575 124.103 27.805 123.862 27.07C123.959 26.545 123.766 26.02 123.766 25.46C123.766 25.25 123.718 25.005 123.622 24.795C123.429 24.305 123.381 23.78 123.092 23.325C122.996 23.15 122.803 22.975 122.707 22.8C122.611 22.555 122.274 22.52 122.13 22.345C121.552 22.275 121.119 21.855 120.493 21.715C120.445 21.715 120.349 21.75 120.204 21.715C119.867 21.68 119.627 21.82 119.386 21.995C119.145 22.24 118.905 22.485 118.712 22.765C118.327 23.22 117.99 23.675 117.653 24.13C117.364 24.585 117.027 25.04 116.738 25.495C116.45 25.88 116.257 26.335 116.065 26.72C115.583 27.49 115.15 28.295 114.813 29.065C114.476 29.8 114.091 30.5 113.802 31.2C113.658 31.55 113.513 31.9 113.321 32.285C113.321 32.32 113.225 32.39 113.176 32.46C112.984 32.495 112.839 32.495 112.695 32.53C112.214 32.67 111.684 32.81 111.203 32.915C110.866 32.985 110.529 33.09 110.144 33.125C109.807 33.16 109.47 33.3 109.133 33.405C109.037 33.405 108.94 33.475 108.844 33.475C108.315 33.545 107.833 33.72 107.256 33.895C107.496 33.965 107.689 34.035 107.833 34C108.074 33.93 108.315 34 108.555 33.93C108.796 33.825 109.037 33.895 109.277 33.825C109.422 33.755 109.518 33.72 109.711 33.825C109.759 33.86 109.951 33.825 110.048 33.825C110.144 33.825 110.192 33.755 110.288 33.755C110.625 33.72 111.01 33.755 111.299 33.65C111.54 33.545 111.78 33.615 112.021 33.51C112.262 33.405 112.551 33.44 112.936 33.405ZM120.445 31.27C120.012 31.34 119.627 31.375 119.193 31.41C118.905 31.445 118.519 31.41 118.231 31.48C117.749 31.585 117.22 31.55 116.738 31.76C116.353 31.725 116.016 31.865 115.631 31.935C115.487 31.97 115.391 31.97 115.198 32.005C115.15 31.9 115.15 31.795 115.246 31.62C115.439 31.27 115.583 30.92 115.728 30.57C115.824 30.325 115.968 30.08 116.113 29.835C116.305 29.45 116.498 29.1 116.69 28.715C116.979 28.225 117.268 27.7 117.605 27.21C117.894 26.755 118.231 26.265 118.519 25.81C119.001 25.11 119.53 24.48 120.012 23.815C120.108 23.675 120.204 23.57 120.3 23.465C120.3 23.43 120.397 23.465 120.397 23.465C120.445 23.465 120.445 23.5 120.445 23.5C120.397 24.34 120.686 25.215 120.541 26.055C120.397 26.93 120.493 27.77 120.445 28.645C120.445 29.52 120.445 30.36 120.445 31.27ZM123.526 31.655C123.526 32.915 123.526 34.14 123.526 35.4C123.429 35.12 123.381 32.6 123.526 31.655ZM123.333 28.435C123.333 28.085 123.333 27.735 123.333 27.385C123.477 27.56 123.429 27.735 123.429 27.91C123.429 28.085 123.429 28.26 123.429 28.435C123.381 28.435 123.381 28.435 123.333 28.435ZM123.429 31.27C123.429 30.99 123.429 30.675 123.429 30.395C123.574 30.535 123.526 30.675 123.526 30.85C123.574 30.99 123.526 31.13 123.526 31.27C123.526 31.27 123.477 31.27 123.429 31.27ZM123.429 36.485C123.429 36.765 123.429 37.045 123.429 37.29C123.381 37.29 123.381 37.29 123.333 37.29C123.333 37.045 123.333 36.765 123.333 36.485C123.381 36.485 123.381 36.485 123.429 36.485ZM122.9 42.12C122.9 41.98 122.9 41.84 122.9 41.595C123.044 41.84 122.996 41.98 122.9 42.12ZM122.996 40.405C122.996 40.335 122.996 40.265 122.996 40.23C122.996 40.125 122.996 40.055 122.996 39.95C123.14 40.09 123.092 40.23 123.092 40.37C123.092 40.37 123.044 40.405 122.996 40.405ZM123.285 37.885C123.285 37.955 123.285 38.025 123.285 38.13C123.285 38.13 123.285 38.13 123.237 38.13C123.237 38.025 123.237 37.955 123.189 37.885C123.237 37.885 123.285 37.885 123.285 37.885ZM123.14 38.935C123.14 38.865 123.14 38.76 123.14 38.69C123.14 38.69 123.14 38.69 123.189 38.69C123.189 38.76 123.189 38.83 123.237 38.935C123.189 38.935 123.14 38.935 123.14 38.935ZM110.866 41.035C110.673 41.105 110.77 41.245 110.77 41.385C110.77 41.385 110.818 41.385 110.866 41.385C110.866 41.28 110.866 41.14 110.866 41.035ZM132.24 43.205C132.384 43.03 132.528 42.995 132.528 42.855C132.721 42.33 132.769 41.77 132.865 41.21C132.913 40.965 132.865 40.72 132.962 40.44C133.058 40.23 133.01 39.915 133.106 39.67C133.202 39.11 133.491 38.515 133.684 37.99C133.828 37.395 133.972 36.87 134.117 36.275C134.261 35.855 134.406 35.4 134.55 34.945C134.791 34.175 134.983 33.405 135.32 32.6C135.465 32.18 135.561 31.795 135.657 31.375C135.802 30.99 135.946 30.57 136.09 30.185C136.572 28.96 136.957 27.735 137.534 26.545C137.775 25.95 138.064 25.32 138.401 24.725C138.93 23.745 139.556 22.8 140.182 21.82C140.182 21.82 140.23 21.82 140.326 21.82C140.374 22.24 140.23 22.625 140.423 22.975C140.423 23.045 140.423 23.115 140.374 23.185C140.374 23.255 140.326 23.36 140.326 23.43C140.278 24.06 140.374 24.69 140.23 25.32C140.134 25.705 140.23 26.125 140.134 26.51C140.038 26.825 140.086 27.175 139.989 27.56C139.941 27.91 139.989 28.295 139.893 28.645C139.797 29.03 139.893 29.345 139.797 29.625C139.652 30.01 139.701 30.36 139.652 30.71C139.556 31.13 139.604 31.62 139.508 32.04C139.412 32.355 139.508 32.67 139.412 33.02C139.315 33.265 139.412 33.58 139.364 33.895C139.364 34.14 139.315 34.42 139.267 34.665C139.219 35.12 139.315 35.575 139.171 35.96C139.075 36.275 139.171 36.59 139.171 36.905C139.123 37.185 139.075 37.5 139.075 37.815C139.027 38.13 139.075 38.445 139.075 38.76C139.171 38.865 139.267 38.97 139.364 39.11C139.604 38.97 139.797 39.495 140.086 39.285C140.086 39.18 140.134 39.11 140.134 38.935C140.182 39.11 140.23 39.25 140.278 39.32C140.326 39.285 140.326 39.25 140.374 39.25C140.471 39.285 140.519 39.355 140.615 39.425C140.76 39.425 140.856 39.425 141.096 39.425C141.096 39.46 141.145 39.53 141.193 39.67C141.241 39.495 141.289 39.425 141.289 39.285C141.337 39.46 141.385 39.53 141.433 39.67C141.53 39.6 141.626 39.53 141.674 39.495C141.722 39.46 141.819 39.425 141.867 39.355C141.867 38.13 141.77 36.905 142.059 35.75C142.155 35.435 142.155 35.12 142.3 34.875C142.396 34.49 142.396 34.14 142.589 33.79C142.685 33.44 142.781 33.02 142.974 32.67C143.166 32.18 143.359 31.69 143.6 31.2C143.888 30.395 144.273 29.625 144.707 28.89C144.995 28.26 145.381 27.665 145.766 27.105C146.054 26.615 146.391 26.125 146.776 25.635C147.354 24.97 147.787 24.2 148.461 23.535C148.798 23.185 149.087 22.765 149.424 22.485C149.665 22.625 149.616 22.87 149.616 23.08C149.616 23.535 149.616 24.025 149.52 24.48C149.424 25.005 149.52 25.565 149.424 26.16C149.328 26.685 149.424 27.28 149.328 27.805C149.183 28.33 149.328 28.89 149.183 29.415C149.087 29.87 149.183 30.325 149.183 30.815C149.183 31.235 149.039 31.69 149.039 32.18C149.087 32.845 149.087 33.51 149.087 34.175C149.087 34.595 149.087 34.945 149.087 35.365C149.087 35.715 149.039 36.065 149.087 36.45C149.087 36.835 149.039 37.22 149.135 37.57C149.231 37.955 149.183 38.34 149.28 38.655C149.328 38.83 149.424 38.97 149.376 39.11C149.328 39.775 149.568 40.44 149.52 41.14C149.472 41.42 149.665 41.63 149.857 41.875C149.905 41.945 150.098 42.05 150.29 42.085C150.387 42.085 150.531 42.05 150.579 42.05C150.868 42.085 151.109 42.19 151.349 42.225C151.349 42.26 151.397 42.33 151.446 42.435C151.542 42.365 151.638 42.33 151.686 42.33C151.783 42.33 151.831 42.365 151.879 42.4C151.975 42.33 152.023 42.26 152.071 42.26C152.12 41.525 152.12 40.755 152.216 40.02C152.216 39.95 152.264 39.915 152.264 39.81C152.312 39.495 152.456 39.18 152.553 38.865C152.697 38.34 152.697 37.815 152.793 37.255C152.842 36.835 152.793 36.38 152.793 35.925C152.793 35.54 152.89 35.085 152.89 34.665C152.938 33.895 152.89 33.09 152.89 32.32C152.89 31.55 152.938 30.815 152.89 30.01C152.89 29.24 152.938 28.47 152.793 27.735C152.745 27.28 152.793 26.825 152.793 26.37C152.793 25.95 152.649 25.495 152.649 25.04C152.697 24.76 152.553 24.48 152.553 24.165C152.264 23.675 152.264 23.08 151.975 22.59C151.734 22.1 151.397 21.75 150.916 21.505C150.627 21.435 150.435 21.295 150.194 21.155C149.953 21.015 149.616 20.84 149.28 20.91C149.135 20.945 148.943 20.945 148.75 20.945C148.557 21.085 148.317 21.19 148.172 21.4C147.835 21.645 147.547 21.96 147.258 22.275C147.113 22.415 146.969 22.59 146.825 22.765C146.343 23.465 145.717 24.165 145.284 24.9C144.899 25.46 144.514 25.95 144.177 26.51C143.648 27.42 143.118 28.33 142.685 29.275C142.396 29.765 142.107 30.255 141.915 30.815C141.867 30.92 141.77 31.025 141.626 31.235C141.626 28.96 141.626 26.79 141.626 24.655L141.53 24.585C141.53 24.585 141.53 24.585 141.482 24.655C141.482 25.46 141.482 26.265 141.482 27.035C141.385 27.035 141.385 27 141.385 27C141.385 26.055 141.385 25.18 141.385 24.235C141.289 24.165 141.193 24.095 141.096 24.025C141.096 23.745 141.096 23.465 141.096 23.08C141.048 23.255 141 23.29 141 23.36C140.952 23.045 140.76 22.73 140.808 22.38C140.856 22.065 140.471 21.785 140.808 21.435C140.519 21.33 140.278 21.19 140.038 21.085C140.038 21.295 139.845 21.33 139.652 21.435C139.508 21.505 139.364 21.575 139.219 21.645C139.171 21.645 139.171 21.68 139.171 21.75C138.93 22.1 138.642 22.415 138.449 22.765C138.064 23.57 137.534 24.34 137.198 25.145C136.909 25.635 136.668 26.055 136.524 26.545C136.187 27.455 135.753 28.295 135.513 29.205C135.416 29.555 135.176 29.905 135.08 30.255C134.935 30.745 134.791 31.235 134.646 31.725C134.454 32.215 134.261 32.775 134.117 33.265C134.021 33.685 133.876 34.175 133.732 34.63C133.635 34.945 133.539 35.26 133.491 35.61C133.443 36.03 133.202 36.38 133.106 36.73C133.106 36.66 133.106 36.52 133.106 36.415C133.106 35.89 133.154 35.4 133.106 34.875C133.058 34.385 133.202 33.895 133.202 33.405C133.202 31.9 133.202 30.5 133.202 29.065C133.202 28.4 133.299 27.77 133.106 27.14C133.154 26.055 132.962 25.04 133.01 23.99C133.01 23.85 133.01 23.745 132.962 23.675C132.817 23.185 132.865 22.695 132.769 22.205C132.769 22.135 132.769 22.065 132.721 21.89C132.576 22.205 132.721 22.415 132.576 22.625C132.576 22.38 132.576 22.135 132.576 21.89C132.384 21.575 132.047 21.505 131.854 21.33C131.71 21.47 131.469 21.61 131.373 21.68C131.325 21.785 131.373 21.82 131.325 21.925C131.229 22.135 131.084 22.415 131.036 22.695C130.94 23.22 130.603 23.745 130.699 24.34C130.459 24.48 130.603 24.725 130.507 24.865C130.41 25.075 130.41 25.32 130.41 25.495C130.41 25.565 130.459 25.635 130.41 25.67C130.218 25.845 130.362 26.02 130.314 26.265C130.266 26.44 130.218 26.615 130.218 26.79C130.218 27.315 130.025 27.84 130.073 28.4C130.073 28.435 130.122 28.47 130.073 28.47C129.881 28.715 129.977 28.96 129.977 29.205C130.025 29.415 129.881 29.625 129.881 29.87C129.833 30.185 129.833 30.535 129.785 30.885C129.64 31.305 129.688 31.725 129.592 32.18C129.496 32.635 129.544 33.125 129.496 33.615C129.4 34.49 129.496 35.4 129.4 36.275C129.303 36.87 129.303 37.465 129.448 38.06C129.544 38.48 129.496 38.97 129.496 39.425C129.496 39.53 129.448 39.74 129.496 39.845C129.64 40.09 129.544 40.265 129.592 40.475C129.64 40.72 129.688 40.895 129.688 41.105C129.688 41.455 129.881 41.77 129.977 42.12C130.073 42.435 130.41 42.68 130.795 42.82C130.94 42.855 131.084 42.89 131.229 42.855C131.373 42.82 131.518 42.995 131.758 42.89L131.806 42.925C131.806 42.925 131.806 42.925 131.806 42.995C131.854 43.03 131.903 43.065 131.999 43.1C132.047 43.03 132.095 42.995 132.095 42.89C132.143 42.995 132.191 43.03 132.24 43.205ZM152.216 34.175C152.216 31.795 152.216 29.38 152.216 26.965C152.264 26.965 152.264 26.965 152.264 26.965L152.312 27C152.312 29.415 152.312 31.795 152.312 34.175C152.264 34.175 152.264 34.175 152.216 34.175ZM132.625 32.285C132.625 32.845 132.625 33.44 132.625 33.965H132.576H132.528C132.528 33.405 132.528 32.845 132.528 32.285C132.576 32.285 132.625 32.285 132.625 32.285ZM132.528 35.435C132.528 35.925 132.528 36.45 132.528 36.975C132.336 36.695 132.384 36.45 132.384 36.205C132.384 35.925 132.384 35.715 132.384 35.435C132.432 35.435 132.432 35.435 132.528 35.435ZM152.168 35.96C152.168 36.38 152.168 36.835 152.168 37.255H152.12L152.071 37.22C152.071 36.835 152.071 36.38 152.071 35.96C152.12 35.96 152.12 35.96 152.168 35.96ZM151.638 41.245C151.638 41.07 151.638 40.825 151.638 40.65C151.783 40.825 151.734 41.07 151.638 41.245ZM152.071 37.885C152.071 38.06 152.071 38.2 152.071 38.375C152.023 38.375 151.975 38.34 151.975 38.34C151.975 38.2 151.975 38.06 151.975 37.885C152.023 37.885 152.023 37.885 152.071 37.885ZM151.879 39.11C151.879 39.04 151.879 38.97 151.879 38.935C151.927 38.935 151.927 38.935 151.927 38.935C151.927 38.97 151.927 39.04 151.927 39.11C151.927 39.11 151.927 39.11 151.879 39.11ZM151.783 39.74C151.783 39.67 151.783 39.6 151.783 39.495H151.831C151.831 39.6 151.831 39.67 151.831 39.74H151.783Z" fill="#FEB500"/>
</g>
<defs>
<clipPath id="clip0">
<rect width="221" height="74" fill="white"/>
</clipPath>
</defs>
</svg>
